<?xml version="1.0" encoding="UTF-8"?>
<!DOCTYPE svg PUBLIC "-//W3C//DTD SVG 1.1//EN" "http://www.w3.org/Graphics/SVG/1.1/DTD/svg11.dtd">
<!-- Creator: CorelDRAW X7 -->
<svg xmlns="http://www.w3.org/2000/svg" xml:space="preserve" width="56.0888mm" height="56.0888mm" version="1.1" style="shape-rendering:geometricPrecision; text-rendering:geometricPrecision; image-rendering:optimizeQuality; fill-rule:evenodd; clip-rule:evenodd"
viewBox="0 0 6836 6836"
 xmlns:xlink="http://www.w3.org/1999/xlink">
 <defs>
  <style type="text/css">
   <![CDATA[
    .fil0 {fill:#FEFEFE}
    .fil1 {fill:#5B8AC7}
   ]]>
  </style>
 </defs>
 <g id="Слой_x0020_1">
  <metadata id="CorelCorpID_0Corel-Layer"/>
  <circle class="fil0" cx="3418" cy="3418" r="3418"/>
  <path class="fil1" d="M2130 4253c-57,-16 -113,-41 -158,-81 -43,-37 -68,-86 -68,-145 0,-58 25,-106 67,-143l1 0c44,-40 97,-57 155,-57 57,0 110,18 154,56 23,20 42,44 53,73l15 42 -120 42 -16 -36c-4,-10 -12,-19 -20,-26 -19,-17 -41,-23 -66,-23 -25,0 -48,6 -67,23 -15,13 -24,28 -24,49 0,21 9,36 24,49 25,22 57,37 86,50 68,19 132,51 186,98 56,49 89,112 89,189 0,77 -32,140 -89,189 -59,52 -129,75 -205,75 -77,0 -147,-24 -206,-75 -44,-39 -75,-87 -85,-146l-6 -38 128 -41 6 52c4,32 21,57 45,78 34,30 74,42 118,42 44,0 84,-12 118,-42 28,-25 45,-55 45,-94 0,-40 -17,-69 -45,-94 -34,-30 -74,-51 -115,-66zm608 -289l0 705 -132 0 0 -705 -216 0 0 -128 563 0 0 128 -215 0zm746 -128l132 0 0 583 0 3c-11,69 -44,126 -96,171 -64,57 -140,82 -223,82 -84,0 -160,-25 -225,-82 -61,-53 -96,-121 -96,-205l0 -552 132 0 0 552c0,46 20,80 53,109 39,35 85,49 136,49 50,0 96,-14 135,-49 33,-29 52,-63 52,-109l0 -552zm340 1c113,5 227,34 315,112 90,79 142,180 142,303 0,124 -52,224 -142,304 -88,77 -202,106 -315,111l0 2 -132 0 0 -833 132 0 0 1zm746 500l-330 -501 156 0 240 364 240 -364 157 0 -331 501 0 332 -132 0 0 -332zm-746 -370l0 571c80,-5 164,-24 226,-79 62,-54 98,-121 98,-207 0,-85 -36,-152 -98,-207 -62,-54 -146,-74 -226,-78z"/>
  <path class="fil1" d="M2136 4233c-53,-16 -108,-40 -151,-77 -38,-34 -60,-77 -60,-129 0,-51 22,-94 60,-127l0 0c41,-35 89,-51 142,-51 53,0 100,16 141,51 20,17 37,38 46,64l8 21 -82 29 -7 -19c-6,-13 -16,-24 -26,-34 -23,-20 -50,-28 -80,-28 -31,0 -57,8 -81,29 -20,17 -31,38 -31,65 0,27 12,48 31,66 27,23 62,40 94,53 65,19 127,49 179,94 51,45 81,102 81,173 0,70 -30,127 -81,173 -55,48 -120,70 -192,70 -72,0 -137,-22 -192,-71 -41,-35 -69,-79 -78,-133l-4 -19 88 -27 3 25c4,38 24,68 51,92 38,34 82,48 132,48 49,0 94,-14 131,-48 34,-29 53,-65 53,-110 0,-46 -19,-82 -53,-111 -35,-31 -78,-53 -122,-69zm581 -290l0 704 -90 0 0 -704 -216 0 0 -86 521 0 0 86 -215 0zm788 -86l90 0 0 560 0 2c-10,64 -41,116 -88,158 -61,53 -132,76 -210,76 -79,0 -151,-23 -211,-76 -56,-49 -89,-112 -89,-189l0 -531 90 0 0 531c0,52 23,93 61,126 42,37 93,54 149,54 55,0 106,-17 148,-54 38,-33 60,-74 60,-126l0 -531zm298 1c115,3 233,28 322,107 86,76 135,170 135,287 0,117 -49,212 -135,287 -89,79 -207,104 -322,107l0 1 -90 0 0 -790 90 0 0 1zm0 87l0 615c92,-2 189,-21 260,-84 68,-59 106,-132 106,-224 0,-92 -39,-165 -106,-224 -71,-62 -168,-81 -260,-83zm788 385l-311 -473 105 0 251 381 252 -381 105 0 -312 473 0 317 -90 0 0 -317z"/>
  <path class="fil1" d="M3006 5132c17,-77 54,-146 112,-205 80,-83 178,-125 292,-125 114,0 212,42 293,125 80,83 121,184 121,301 0,118 -41,219 -121,302 -81,83 -179,125 -293,125 -114,0 -212,-42 -293,-125 -80,-83 -121,-184 -121,-302 0,-19 1,-38 3,-56 -11,49 -36,93 -73,131 -22,23 -48,42 -76,56l181 287 -151 0 -161 -259 -71 0 0 259 -125 0 0 -833 235 0 3 0c64,9 120,37 165,84 54,56 82,124 82,203 0,11 -1,21 -2,32zm-651 341l0 -249 125 0 0 304 -13 13c-77,76 -170,114 -276,114 -113,0 -212,-42 -292,-125 -80,-82 -121,-184 -121,-301 0,-117 41,-218 121,-300 80,-83 179,-125 292,-125 106,0 200,37 278,111l34 32 -93 87 -28 -26c-55,-50 -118,-74 -191,-74 -80,0 -147,28 -203,86 -56,58 -84,127 -84,209 0,83 27,152 84,210 56,58 123,87 203,87 61,0 115,-17 164,-53zm1942 -660l125 0 0 583 0 3c-9,65 -36,122 -82,169 -54,56 -120,84 -196,84 -77,0 -143,-28 -198,-84 -54,-55 -81,-124 -81,-202l0 -553 125 0 0 553c0,44 15,80 45,111 30,31 66,46 109,46 42,0 78,-15 108,-46 30,-31 45,-67 45,-111l0 -553zm302 574l0 259 -125 0 0 -833 235 0 3 0c64,9 119,37 165,84 54,56 81,124 81,203 0,79 -27,147 -81,203 -54,56 -121,84 -197,84l-81 0zm-1951 -445l0 316 81 0c43,0 78,-15 109,-46 30,-32 45,-68 45,-112 0,-44 -15,-81 -45,-112 -31,-31 -66,-46 -109,-46l-81 0zm762 -10c-80,0 -147,28 -204,87 -56,58 -84,127 -84,209 0,83 28,152 84,210 57,59 124,88 204,88 80,0 147,-29 204,-88 57,-58 84,-127 84,-210 0,-82 -27,-151 -84,-209 -57,-59 -124,-87 -204,-87zm1189 10l0 316 81 0c43,0 78,-15 108,-46 30,-32 45,-68 45,-112 0,-44 -14,-81 -45,-112 -30,-31 -65,-46 -108,-46l-81 0z"/>
  <path class="fil1" d="M2376 5484l0 -238 83 0 0 273 -7 6c-72,72 -160,108 -261,108 -108,0 -201,-39 -277,-118 -77,-79 -115,-174 -115,-286 0,-111 39,-206 115,-285 76,-79 169,-118 277,-118 101,0 189,35 264,105l17 16 -62 58 -14 -13c-59,-54 -127,-80 -205,-80 -85,0 -157,31 -218,93 -60,62 -90,136 -90,224 0,88 30,163 90,225 61,62 133,93 218,93 69,0 131,-20 185,-63zm354 -119c0,0 0,0 -1,0l-102 0 0 259 -83 0 0 -789 213 0 1 0c60,8 111,34 153,77 50,52 76,115 76,188 0,73 -25,136 -76,188 -26,27 -57,48 -92,61l173 275 -100 0 -162 -259zm-103 -445l0 359 102 0c49,0 89,-17 123,-52 35,-35 52,-77 52,-127 0,-50 -17,-92 -52,-127 -34,-35 -74,-53 -123,-53l-102 0zm783 -96c108,0 201,40 278,118 76,79 115,175 115,286 0,112 -39,208 -115,286 -77,79 -170,119 -278,119 -108,0 -201,-40 -278,-119 -76,-78 -115,-174 -115,-286 0,-111 39,-207 115,-286 77,-78 170,-118 278,-118zm0 86c-85,0 -158,31 -219,93 -60,63 -90,137 -90,225 0,89 30,163 90,226 61,62 133,93 219,93 86,0 158,-31 219,-93 60,-63 90,-137 90,-226 0,-88 -30,-162 -90,-225 -61,-62 -133,-93 -219,-93zm908 -75l83 0 0 559 0 2c-8,61 -33,114 -75,157 -51,52 -112,78 -182,78 -71,0 -133,-26 -183,-78 -50,-52 -75,-114 -75,-187l0 -531 83 0 0 531c0,49 17,91 51,126 34,36 75,53 124,53 48,0 89,-17 123,-53 34,-35 51,-77 51,-126l0 -531zm260 530l0 259 -83 0 0 -789 213 0 1 0c59,8 111,34 153,77 50,52 75,115 75,188 0,73 -25,136 -75,188 -50,51 -111,77 -182,77l-102 0zm0 -445l0 359 102 0c48,0 89,-17 123,-52 34,-35 51,-77 51,-127 0,-50 -17,-92 -51,-127 -34,-35 -75,-53 -123,-53l-102 0z"/>
  <path class="fil1" d="M3436 2585c-129,120 -259,240 -396,354l-11 9 -13 -5c-49,-17 -86,-52 -122,-87 -13,-13 -27,-26 -41,-38l-17 14c-80,64 -164,131 -244,198l6 -1c46,-13 92,-26 127,-36 35,-30 70,-59 108,-89l17 -13 15 14c34,32 74,61 117,87 40,24 83,46 126,66 17,-12 38,-28 63,-49 25,-22 55,-47 89,-79l15 -14 16 12c43,31 78,65 112,100 9,9 19,18 28,28 18,-26 35,-50 51,-74 40,-59 80,-118 126,-177l16 -20 19 16c45,37 88,75 130,114 35,32 68,63 100,95 4,-6 8,-11 12,-16 10,-12 22,-23 42,-38l13 -9 14 8c45,25 80,42 116,57 37,16 74,29 125,47l0 0c5,1 11,3 17,5 18,6 41,13 64,21 -12,-11 -25,-22 -37,-34 -42,-38 -85,-77 -128,-117 -82,-18 -169,-37 -234,-94l0 0c-57,-49 -113,-101 -170,-153 -63,-59 -127,-117 -194,-174 -19,18 -48,45 -77,72zm-157 424c-21,19 -42,38 -64,56 -26,21 -52,42 -79,61l-21 15 -23 -11c-49,-23 -98,-47 -145,-75 -35,-21 -69,-45 -100,-71 -28,23 -55,46 -82,68l-7 7 -9 3c-45,12 -89,25 -133,37 -38,10 -77,21 -115,32l-192 54 151 -134c108,-96 221,-186 333,-276 11,-9 22,-18 32,-26l27 -21 27 20c23,16 43,36 63,55 23,22 47,47 75,62 128,-107 250,-220 372,-334 31,-29 62,-57 93,-86l28 -26 30 24c74,61 144,125 214,190 55,51 110,102 167,151l1 1 0 0c55,47 139,64 207,79l15 3 9 9c44,40 88,81 132,121 41,37 81,73 122,109l137 121 -176 -40c-33,-8 -66,-18 -97,-28 -27,-9 -53,-17 -80,-26 -5,-1 -11,-3 -17,-5l-1 -1 -1 0c-43,-15 -87,-30 -129,-48 -33,-14 -65,-30 -97,-47 -3,3 -6,6 -8,9 -7,9 -13,20 -18,30l-26 57 -45 -43c-41,-39 -81,-78 -122,-117 -30,-27 -61,-55 -92,-81 -33,45 -64,90 -96,136 -22,33 -44,66 -67,99l-30 41 -37 -34c-17,-16 -34,-33 -51,-50 -24,-24 -49,-48 -75,-70zm-72 -374c-62,56 -124,111 -169,153l-20 18 -19 -17c-17,-14 -42,-37 -68,-59 -26,-23 -52,-46 -79,-68 -331,299 -664,607 -996,914l-23 22c954,0 1908,0 2862,0l306 0c-249,-227 -484,-445 -720,-664l-84 -78c-13,-2 -27,-4 -41,-6 -68,-10 -140,-20 -199,-76l0 0c-84,-72 -162,-147 -240,-222 -69,-66 -137,-132 -207,-193 -100,94 -201,185 -303,276zm-190 62c46,-42 92,-83 138,-124 107,-97 215,-194 321,-294l32 -30 34 29c79,68 154,141 229,213 78,75 156,150 237,220l2 1 0 1c43,39 103,47 157,55 18,3 35,5 53,9l14 2 10 10c30,28 60,56 90,84 259,240 518,480 779,717l99 90 -517 1c-980,0 -1960,0 -2940,-1l-131 0 179 -165c337,-313 674,-625 1016,-933l31 -28 33 27c34,28 67,57 100,86 11,10 23,20 34,30z"/>
  <path class="fil1" d="M3020 2889c131,-109 257,-226 382,-342 24,-22 47,-44 93,-87l16 -14 17 13c73,60 143,125 213,190 54,50 109,101 168,151l0 0c57,50 138,68 216,84l3 1 6 2 5 4c43,40 88,81 133,122 40,36 81,72 122,109l76 67 -98 -23c-40,-9 -126,-37 -175,-52 -6,-2 -12,-4 -17,-6l0 0c-53,-18 -92,-32 -129,-48 -34,-15 -67,-31 -107,-52 -10,7 -16,13 -21,20 -7,8 -13,18 -21,34l-15 32 -24 -24c-42,-40 -83,-80 -123,-117 -35,-33 -71,-65 -108,-96 -39,52 -74,103 -109,154 -23,34 -46,68 -68,99l-16 23 -21 -19c-16,-16 -33,-33 -50,-49 -28,-28 -56,-57 -90,-83 -28,26 -53,48 -76,67 -31,26 -58,46 -77,60l-12 8 -13 -6c-48,-22 -97,-47 -143,-74 -39,-24 -77,-50 -110,-79 -31,25 -63,52 -94,79l0 0 -5 3 -5 2c-48,13 -90,25 -132,37 -47,13 -93,26 -115,32l-107 30 84 -75c104,-92 222,-186 332,-275 11,-9 22,-17 33,-26l14 -12 15 12c22,16 42,35 61,53 29,28 58,56 92,71zm259 120c-21,19 -42,38 -64,56 -26,21 -52,42 -79,61l-21 15 -23 -11c-49,-23 -98,-47 -145,-75 -35,-21 -69,-45 -100,-71 -28,23 -55,46 -82,68l-7 7 -9 3c-45,12 -89,25 -133,37 -38,10 -77,21 -115,32l-192 54 151 -134c108,-96 221,-186 333,-276 11,-9 22,-18 32,-26l27 -21 27 20c23,16 43,36 63,55 23,22 47,47 75,62 128,-107 250,-220 372,-334 31,-29 62,-57 93,-86l28 -26 30 24c74,61 144,125 214,190 55,51 110,102 167,151l1 1 0 0c55,47 139,64 207,79l15 3 9 9c44,40 88,81 132,121 41,37 81,73 122,109l137 121 -176 -40c-33,-8 -66,-18 -97,-28 -27,-9 -53,-17 -80,-26 -5,-1 -11,-3 -17,-5l-1 -1 -1 0c-43,-15 -87,-30 -129,-48 -33,-14 -65,-30 -97,-47 -3,3 -6,6 -8,9 -7,9 -13,20 -18,30l-26 57 -45 -43c-41,-39 -81,-78 -122,-117 -30,-27 -61,-55 -92,-81 -33,45 -64,90 -96,136 -22,33 -44,66 -67,99l-30 41 -37 -34c-17,-16 -34,-33 -51,-50 -24,-24 -49,-48 -75,-70zm-262 -285c58,-52 104,-94 151,-136 109,-97 217,-195 321,-293l20 -19 20 18c80,69 154,141 228,212 79,76 157,152 239,222l1 0c46,43 108,52 167,61 18,2 35,5 52,8l8 2 7 5c30,28 60,56 90,84 261,242 520,482 779,718l59 54 -79 0 -385 0c-980,0 -1960,0 -2940,0l-79 0 59 -54 81 -76c335,-310 672,-622 1016,-932l19 -17 19 16c34,28 67,57 100,86 14,12 29,25 47,41zm0 -27c46,-42 92,-83 138,-124 107,-97 215,-194 321,-294l32 -30 34 29c79,68 154,141 229,213 78,75 156,150 237,220l2 1 0 1c43,39 103,47 157,55 18,3 35,5 53,9l14 2 10 10c30,28 60,56 90,84 259,240 518,480 779,717l99 90 -517 1c-980,0 -1960,0 -2940,-1l-131 0 179 -165c337,-313 674,-625 1016,-933l31 -28 33 27c34,28 67,57 100,86 11,10 23,20 34,30z"/>
  <path class="fil1" d="M2130 4253c-57,-16 -113,-41 -158,-81 -43,-37 -68,-86 -68,-145 0,-58 25,-106 67,-143l1 0c44,-40 97,-57 155,-57 57,0 110,18 154,56 23,20 42,44 53,73l15 42 -120 42 -16 -36c-4,-10 -12,-19 -20,-26 -19,-17 -41,-23 -66,-23 -25,0 -48,6 -67,23 -15,13 -24,28 -24,49 0,21 9,36 24,49 25,22 57,37 86,50 68,19 132,51 186,98 56,49 89,112 89,189 0,77 -32,140 -89,189 -59,52 -129,75 -205,75 -77,0 -147,-24 -206,-75 -44,-39 -75,-87 -85,-146l-6 -38 128 -41 6 52c4,32 21,57 45,78 34,30 74,42 118,42 44,0 84,-12 118,-42 28,-25 45,-55 45,-94 0,-40 -17,-69 -45,-94 -34,-30 -74,-51 -115,-66zm608 -289l0 705 -132 0 0 -705 -216 0 0 -128 563 0 0 128 -215 0zm746 -128l132 0 0 583 0 3c-11,69 -44,126 -96,171 -64,57 -140,82 -223,82 -84,0 -160,-25 -225,-82 -61,-53 -96,-121 -96,-205l0 -552 132 0 0 552c0,46 20,80 53,109 39,35 85,49 136,49 50,0 96,-14 135,-49 33,-29 52,-63 52,-109l0 -552zm340 1c113,5 227,34 315,112 90,79 142,180 142,303 0,124 -52,224 -142,304 -88,77 -202,106 -315,111l0 2 -132 0 0 -833 132 0 0 1zm746 500l-330 -501 156 0 240 364 240 -364 157 0 -331 501 0 332 -132 0 0 -332zm-746 -370l0 571c80,-5 164,-24 226,-79 62,-54 98,-121 98,-207 0,-85 -36,-152 -98,-207 -62,-54 -146,-74 -226,-78z"/>
  <path class="fil1" d="M2136 4233c-53,-16 -108,-40 -151,-77 -38,-34 -60,-77 -60,-129 0,-51 22,-94 60,-127l0 0c41,-35 89,-51 142,-51 53,0 100,16 141,51 20,17 37,38 46,64l8 21 -82 29 -7 -19c-6,-13 -16,-24 -26,-34 -23,-20 -50,-28 -80,-28 -31,0 -57,8 -81,29 -20,17 -31,38 -31,65 0,27 12,48 31,66 27,23 62,40 94,53 65,19 127,49 179,94 51,45 81,102 81,173 0,70 -30,127 -81,173 -55,48 -120,70 -192,70 -72,0 -137,-22 -192,-71 -41,-35 -69,-79 -78,-133l-4 -19 88 -27 3 25c4,38 24,68 51,92 38,34 82,48 132,48 49,0 94,-14 131,-48 34,-29 53,-65 53,-110 0,-46 -19,-82 -53,-111 -35,-31 -78,-53 -122,-69zm581 -290l0 704 -90 0 0 -704 -216 0 0 -86 521 0 0 86 -215 0zm788 -86l90 0 0 560 0 2c-10,64 -41,116 -88,158 -61,53 -132,76 -210,76 -79,0 -151,-23 -211,-76 -56,-49 -89,-112 -89,-189l0 -531 90 0 0 531c0,52 23,93 61,126 42,37 93,54 149,54 55,0 106,-17 148,-54 38,-33 60,-74 60,-126l0 -531zm298 1c115,3 233,28 322,107 86,76 135,170 135,287 0,117 -49,212 -135,287 -89,79 -207,104 -322,107l0 1 -90 0 0 -790 90 0 0 1zm0 87l0 615c92,-2 189,-21 260,-84 68,-59 106,-132 106,-224 0,-92 -39,-165 -106,-224 -71,-62 -168,-81 -260,-83zm788 385l-311 -473 105 0 251 381 252 -381 105 0 -312 473 0 317 -90 0 0 -317z"/>
  <path class="fil1" d="M3006 5132c17,-77 54,-146 112,-205 80,-83 178,-125 292,-125 114,0 212,42 293,125 80,83 121,184 121,301 0,118 -41,219 -121,302 -81,83 -179,125 -293,125 -114,0 -212,-42 -293,-125 -80,-83 -121,-184 -121,-302 0,-19 1,-38 3,-56 -11,49 -36,93 -73,131 -22,23 -48,42 -76,56l181 287 -151 0 -161 -259 -71 0 0 259 -125 0 0 -833 235 0 3 0c64,9 120,37 165,84 54,56 82,124 82,203 0,11 -1,21 -2,32zm-651 341l0 -249 125 0 0 304 -13 13c-77,76 -170,114 -276,114 -113,0 -212,-42 -292,-125 -80,-82 -121,-184 -121,-301 0,-117 41,-218 121,-300 80,-83 179,-125 292,-125 106,0 200,37 278,111l34 32 -93 87 -28 -26c-55,-50 -118,-74 -191,-74 -80,0 -147,28 -203,86 -56,58 -84,127 -84,209 0,83 27,152 84,210 56,58 123,87 203,87 61,0 115,-17 164,-53zm1942 -660l125 0 0 583 0 3c-9,65 -36,122 -82,169 -54,56 -120,84 -196,84 -77,0 -143,-28 -198,-84 -54,-55 -81,-124 -81,-202l0 -553 125 0 0 553c0,44 15,80 45,111 30,31 66,46 109,46 42,0 78,-15 108,-46 30,-31 45,-67 45,-111l0 -553zm302 574l0 259 -125 0 0 -833 235 0 3 0c64,9 119,37 165,84 54,56 81,124 81,203 0,79 -27,147 -81,203 -54,56 -121,84 -197,84l-81 0zm-1951 -445l0 316 81 0c43,0 78,-15 109,-46 30,-32 45,-68 45,-112 0,-44 -15,-81 -45,-112 -31,-31 -66,-46 -109,-46l-81 0zm762 -10c-80,0 -147,28 -204,87 -56,58 -84,127 -84,209 0,83 28,152 84,210 57,59 124,88 204,88 80,0 147,-29 204,-88 57,-58 84,-127 84,-210 0,-82 -27,-151 -84,-209 -57,-59 -124,-87 -204,-87zm1189 10l0 316 81 0c43,0 78,-15 108,-46 30,-32 45,-68 45,-112 0,-44 -14,-81 -45,-112 -30,-31 -65,-46 -108,-46l-81 0z"/>
  <path class="fil1" d="M2376 5484l0 -238 83 0 0 273 -7 6c-72,72 -160,108 -261,108 -108,0 -201,-39 -277,-118 -77,-79 -115,-174 -115,-286 0,-111 39,-206 115,-285 76,-79 169,-118 277,-118 101,0 189,35 264,105l17 16 -62 58 -14 -13c-59,-54 -127,-80 -205,-80 -85,0 -157,31 -218,93 -60,62 -90,136 -90,224 0,88 30,163 90,225 61,62 133,93 218,93 69,0 131,-20 185,-63zm354 -119c0,0 0,0 -1,0l-102 0 0 259 -83 0 0 -789 213 0 1 0c60,8 111,34 153,77 50,52 76,115 76,188 0,73 -25,136 -76,188 -26,27 -57,48 -92,61l173 275 -100 0 -162 -259zm-103 -445l0 359 102 0c49,0 89,-17 123,-52 35,-35 52,-77 52,-127 0,-50 -17,-92 -52,-127 -34,-35 -74,-53 -123,-53l-102 0zm783 -96c108,0 201,40 278,118 76,79 115,175 115,286 0,112 -39,208 -115,286 -77,79 -170,119 -278,119 -108,0 -201,-40 -278,-119 -76,-78 -115,-174 -115,-286 0,-111 39,-207 115,-286 77,-78 170,-118 278,-118zm0 86c-85,0 -158,31 -219,93 -60,63 -90,137 -90,225 0,89 30,163 90,226 61,62 133,93 219,93 86,0 158,-31 219,-93 60,-63 90,-137 90,-226 0,-88 -30,-162 -90,-225 -61,-62 -133,-93 -219,-93zm908 -75l83 0 0 559 0 2c-8,61 -33,114 -75,157 -51,52 -112,78 -182,78 -71,0 -133,-26 -183,-78 -50,-52 -75,-114 -75,-187l0 -531 83 0 0 531c0,49 17,91 51,126 34,36 75,53 124,53 48,0 89,-17 123,-53 34,-35 51,-77 51,-126l0 -531zm260 530l0 259 -83 0 0 -789 213 0 1 0c59,8 111,34 153,77 50,52 75,115 75,188 0,73 -25,136 -75,188 -50,51 -111,77 -182,77l-102 0zm0 -445l0 359 102 0c48,0 89,-17 123,-52 34,-35 51,-77 51,-127 0,-50 -17,-92 -51,-127 -34,-35 -75,-53 -123,-53l-102 0z"/>
  <path class="fil1" d="M3020 2889c131,-109 257,-226 382,-342 24,-22 47,-44 93,-87l16 -14 17 13c73,60 143,125 213,190 54,50 109,101 168,151l0 0c57,50 138,68 216,84l3 1 6 2 5 4c43,40 88,81 133,122 40,36 81,72 122,109l76 67 -98 -23c-40,-9 -126,-37 -175,-52 -6,-2 -12,-4 -17,-6l0 0c-53,-18 -92,-32 -129,-48 -34,-15 -67,-31 -107,-52 -10,7 -16,13 -21,20 -7,8 -13,18 -21,34l-15 32 -24 -24c-42,-40 -83,-80 -123,-117 -35,-33 -71,-65 -108,-96 -39,52 -74,103 -109,154 -23,34 -46,68 -68,99l-16 23 -21 -19c-16,-16 -33,-33 -50,-49 -28,-28 -56,-57 -90,-83 -28,26 -53,48 -76,67 -31,26 -58,46 -77,60l-12 8 -13 -6c-48,-22 -97,-47 -143,-74 -39,-24 -77,-50 -110,-79 -31,25 -63,52 -94,79l0 0 -5 3 -5 2c-48,13 -90,25 -132,37 -47,13 -93,26 -115,32l-107 30 84 -75c104,-92 222,-186 332,-275 11,-9 22,-17 33,-26l14 -12 15 12c22,16 42,35 61,53 29,28 58,56 92,71zm259 120c-21,19 -42,38 -64,56 -26,21 -52,42 -79,61l-21 15 -23 -11c-49,-23 -98,-47 -145,-75 -35,-21 -69,-45 -100,-71 -28,23 -55,46 -82,68l-7 7 -9 3c-45,12 -89,25 -133,37 -38,10 -77,21 -115,32l-192 54 151 -134c108,-96 221,-186 333,-276 11,-9 22,-18 32,-26l27 -21 27 20c23,16 43,36 63,55 23,22 47,47 75,62 128,-107 250,-220 372,-334 31,-29 62,-57 93,-86l28 -26 30 24c74,61 144,125 214,190 55,51 110,102 167,151l1 1 0 0c55,47 139,64 207,79l15 3 9 9c44,40 88,81 132,121 41,37 81,73 122,109l137 121 -176 -40c-33,-8 -66,-18 -97,-28 -27,-9 -53,-17 -80,-26 -5,-1 -11,-3 -17,-5l-1 -1 -1 0c-43,-15 -87,-30 -129,-48 -33,-14 -65,-30 -97,-47 -3,3 -6,6 -8,9 -7,9 -13,20 -18,30l-26 57 -45 -43c-41,-39 -81,-78 -122,-117 -30,-27 -61,-55 -92,-81 -33,45 -64,90 -96,136 -22,33 -44,66 -67,99l-30 41 -37 -34c-17,-16 -34,-33 -51,-50 -24,-24 -49,-48 -75,-70zm-262 -285c58,-52 104,-94 151,-136 109,-97 217,-195 321,-293l20 -19 20 18c80,69 154,141 228,212 79,76 157,152 239,222l1 0c46,43 108,52 167,61 18,2 35,5 52,8l8 2 7 5c30,28 60,56 90,84 261,242 520,482 779,718l59 54 -79 0 -385 0c-980,0 -1960,0 -2940,0l-79 0 59 -54 81 -76c335,-310 672,-622 1016,-932l19 -17 19 16c34,28 67,57 100,86 14,12 29,25 47,41zm0 -27c46,-42 92,-83 138,-124 107,-97 215,-194 321,-294l32 -30 34 29c79,68 154,141 229,213 78,75 156,150 237,220l2 1 0 1c43,39 103,47 157,55 18,3 35,5 53,9l14 2 10 10c30,28 60,56 90,84 259,240 518,480 779,717l99 90 -517 1c-980,0 -1960,0 -2940,-1l-131 0 179 -165c337,-313 674,-625 1016,-933l31 -28 33 27c34,28 67,57 100,86 11,10 23,20 34,30z"/>
  <path class="fil1" d="M2424 1533c26,12 50,28 72,45 71,53 118,124 118,217 0,92 -48,164 -118,218 -63,47 -134,72 -210,79l0 3 -282 0 0 -833 223 0c57,0 112,14 159,48 44,32 73,77 73,134 0,35 -14,64 -35,89zm413 -271l0 833 -141 0 0 -833 141 0zm540 271c25,12 49,28 71,45 71,53 119,124 119,217 0,92 -48,164 -119,218 -62,47 -133,72 -209,79l0 3 -282 0 0 -833 223 0c57,0 111,14 158,48 44,32 74,77 74,134 0,35 -14,64 -35,89zm400 433l395 0 0 129 -536 0 0 -833 141 0 0 704zm605 -575l0 223 452 0 0 129 -452 0 0 223 452 0 0 129 -593 0 0 -833 593 0 0 129 -452 0zm-2236 235l0 340 105 0c55,-4 106,-20 151,-55l0 0c38,-29 68,-65 68,-116 0,-51 -29,-87 -67,-115 -53,-39 -115,-54 -180,-54l-77 0zm0 -235l0 104 95 0c21,-2 42,-7 60,-19 11,-8 19,-17 19,-32 0,-16 -8,-25 -20,-34 -21,-15 -47,-19 -73,-19l-81 0zm952 235l0 340 105 0c56,-4 107,-20 152,-55l0 0c38,-29 68,-65 68,-116 0,-51 -29,-87 -68,-115 -53,-39 -115,-54 -180,-54l-77 0zm0 -235l0 104 95 0c21,-2 42,-7 60,-19 12,-8 20,-17 20,-32 0,-16 -9,-25 -21,-34 -21,-15 -47,-19 -72,-19l-82 0z"/>
  <path class="fil1" d="M2386 1541c35,12 68,31 97,55 66,48 110,113 110,199 0,85 -45,151 -110,200 -65,49 -139,73 -218,77l0 1 -240 0 0 -789 202 0c53,0 103,12 146,44 39,28 65,66 65,116 0,40 -23,72 -52,97zm-261 63l0 384 127 0c59,-4 114,-22 163,-59l0 0c44,-34 76,-76 76,-134 0,-58 -32,-100 -76,-133 -57,-41 -123,-58 -192,-58l-98 0zm0 -235l0 147 116 0c25,-1 50,-8 71,-22 18,-12 29,-28 29,-50 0,-23 -11,-39 -29,-52 -25,-17 -55,-23 -85,-23l-102 0zm691 -85l0 789 -99 0 0 -789 99 0zm523 257c35,12 67,31 97,55 65,48 110,113 110,199 0,85 -45,151 -110,200 -65,49 -139,73 -218,77l0 1 -240 0 0 -789 202 0c53,0 103,12 146,44 38,28 65,66 65,116 0,40 -23,72 -52,97zm-262 63l0 384 127 0c60,-4 115,-22 163,-59l0 0c44,-34 77,-76 77,-134 0,-58 -32,-100 -76,-133 -57,-41 -123,-58 -193,-58l-98 0zm0 -235l0 147 117 0c25,-1 49,-8 71,-22 17,-12 29,-28 29,-50 0,-23 -12,-39 -30,-52 -25,-17 -54,-23 -84,-23l-103 0zm679 619l395 0 0 85 -494 0 0 -789 99 0 0 704zm605 -619l0 267 452 0 0 85 -452 0 0 267 452 0 0 85 -551 0 0 -789 551 0 0 85 -452 0z"/>
  <path class="fil1" d="M2424 1533c26,12 50,28 72,45 71,53 118,124 118,217 0,92 -48,164 -118,218 -63,47 -134,72 -210,79l0 3 -282 0 0 -833 223 0c57,0 112,14 159,48 44,32 73,77 73,134 0,35 -14,64 -35,89zm413 -271l0 833 -141 0 0 -833 141 0zm540 271c25,12 49,28 71,45 71,53 119,124 119,217 0,92 -48,164 -119,218 -62,47 -133,72 -209,79l0 3 -282 0 0 -833 223 0c57,0 111,14 158,48 44,32 74,77 74,134 0,35 -14,64 -35,89zm400 433l395 0 0 129 -536 0 0 -833 141 0 0 704zm605 -575l0 223 452 0 0 129 -452 0 0 223 452 0 0 129 -593 0 0 -833 593 0 0 129 -452 0zm-2236 235l0 340 105 0c55,-4 106,-20 151,-55l0 0c38,-29 68,-65 68,-116 0,-51 -29,-87 -67,-115 -53,-39 -115,-54 -180,-54l-77 0zm0 -235l0 104 95 0c21,-2 42,-7 60,-19 11,-8 19,-17 19,-32 0,-16 -8,-25 -20,-34 -21,-15 -47,-19 -73,-19l-81 0zm952 235l0 340 105 0c56,-4 107,-20 152,-55l0 0c38,-29 68,-65 68,-116 0,-51 -29,-87 -68,-115 -53,-39 -115,-54 -180,-54l-77 0zm0 -235l0 104 95 0c21,-2 42,-7 60,-19 12,-8 20,-17 20,-32 0,-16 -9,-25 -21,-34 -21,-15 -47,-19 -72,-19l-82 0z"/>
  <path class="fil1" d="M2386 1541c35,12 68,31 97,55 66,48 110,113 110,199 0,85 -45,151 -110,200 -65,49 -139,73 -218,77l0 1 -240 0 0 -789 202 0c53,0 103,12 146,44 39,28 65,66 65,116 0,40 -23,72 -52,97zm-261 63l0 384 127 0c59,-4 114,-22 163,-59l0 0c44,-34 76,-76 76,-134 0,-58 -32,-100 -76,-133 -57,-41 -123,-58 -192,-58l-98 0zm0 -235l0 147 116 0c25,-1 50,-8 71,-22 18,-12 29,-28 29,-50 0,-23 -11,-39 -29,-52 -25,-17 -55,-23 -85,-23l-102 0zm691 -85l0 789 -99 0 0 -789 99 0zm523 257c35,12 67,31 97,55 65,48 110,113 110,199 0,85 -45,151 -110,200 -65,49 -139,73 -218,77l0 1 -240 0 0 -789 202 0c53,0 103,12 146,44 38,28 65,66 65,116 0,40 -23,72 -52,97zm-262 63l0 384 127 0c60,-4 115,-22 163,-59l0 0c44,-34 77,-76 77,-134 0,-58 -32,-100 -76,-133 -57,-41 -123,-58 -193,-58l-98 0zm0 -235l0 147 117 0c25,-1 49,-8 71,-22 17,-12 29,-28 29,-50 0,-23 -12,-39 -30,-52 -25,-17 -54,-23 -84,-23l-103 0zm679 619l395 0 0 85 -494 0 0 -789 99 0 0 704zm605 -619l0 267 452 0 0 85 -452 0 0 267 452 0 0 85 -551 0 0 -789 551 0 0 85 -452 0z"/>
  <g>
   <path class="fil1" d="M3418 213c884,0 1685,359 2265,940 579,580 938,1381 938,2265 0,885 -359,1686 -938,2266 -580,580 -1381,939 -2265,939 -884,0 -1684,-359 -2264,-939 -580,-580 -938,-1381 -938,-2266 0,-884 358,-1685 938,-2265 580,-581 1380,-940 2264,-940zm0 183c1668,0 3020,1353 3020,3022 0,1669 -1352,3022 -3020,3022 -1668,0 -3020,-1353 -3020,-3022 0,-1669 1352,-3022 3020,-3022z"/>
  </g>
  <path class="fil1" d="M2130 4253c-57,-16 -113,-41 -158,-81 -43,-37 -68,-86 -68,-145 0,-58 25,-106 67,-143l1 0c44,-40 97,-57 155,-57 57,0 110,18 154,56 23,20 42,44 53,73l15 42 -120 42 -16 -36c-4,-10 -12,-19 -20,-26 -19,-17 -41,-23 -66,-23 -25,0 -48,6 -67,23 -15,13 -24,28 -24,49 0,21 9,36 24,49 25,22 57,37 86,50 68,19 132,51 186,98 56,49 89,112 89,189 0,77 -32,140 -89,189 -59,52 -129,75 -205,75 -77,0 -147,-24 -206,-75 -44,-39 -75,-87 -85,-146l-6 -38 128 -41 6 52c4,32 21,57 45,78 34,30 74,42 118,42 44,0 84,-12 118,-42 28,-25 45,-55 45,-94 0,-40 -17,-69 -45,-94 -34,-30 -74,-51 -115,-66zm608 -289l0 705 -132 0 0 -705 -216 0 0 -128 563 0 0 128 -215 0zm746 -128l132 0 0 583 0 3c-11,69 -44,126 -96,171 -64,57 -140,82 -223,82 -84,0 -160,-25 -225,-82 -61,-53 -96,-121 -96,-205l0 -552 132 0 0 552c0,46 20,80 53,109 39,35 85,49 136,49 50,0 96,-14 135,-49 33,-29 52,-63 52,-109l0 -552zm340 1c113,5 227,34 315,112 90,79 142,180 142,303 0,124 -52,224 -142,304 -88,77 -202,106 -315,111l0 2 -132 0 0 -833 132 0 0 1zm746 500l-330 -501 156 0 240 364 240 -364 157 0 -331 501 0 332 -132 0 0 -332zm-746 -370l0 571c80,-5 164,-24 226,-79 62,-54 98,-121 98,-207 0,-85 -36,-152 -98,-207 -62,-54 -146,-74 -226,-78z"/>
  <path class="fil1" d="M2136 4233c-53,-16 -108,-40 -151,-77 -38,-34 -60,-77 -60,-129 0,-51 22,-94 60,-127l0 0c41,-35 89,-51 142,-51 53,0 100,16 141,51 20,17 37,38 46,64l8 21 -82 29 -7 -19c-6,-13 -16,-24 -26,-34 -23,-20 -50,-28 -80,-28 -31,0 -57,8 -81,29 -20,17 -31,38 -31,65 0,27 12,48 31,66 27,23 62,40 94,53 65,19 127,49 179,94 51,45 81,102 81,173 0,70 -30,127 -81,173 -55,48 -120,70 -192,70 -72,0 -137,-22 -192,-71 -41,-35 -69,-79 -78,-133l-4 -19 88 -27 3 25c4,38 24,68 51,92 38,34 82,48 132,48 49,0 94,-14 131,-48 34,-29 53,-65 53,-110 0,-46 -19,-82 -53,-111 -35,-31 -78,-53 -122,-69zm581 -290l0 704 -90 0 0 -704 -216 0 0 -86 521 0 0 86 -215 0zm788 -86l90 0 0 560 0 2c-10,64 -41,116 -88,158 -61,53 -132,76 -210,76 -79,0 -151,-23 -211,-76 -56,-49 -89,-112 -89,-189l0 -531 90 0 0 531c0,52 23,93 61,126 42,37 93,54 149,54 55,0 106,-17 148,-54 38,-33 60,-74 60,-126l0 -531zm298 1c115,3 233,28 322,107 86,76 135,170 135,287 0,117 -49,212 -135,287 -89,79 -207,104 -322,107l0 1 -90 0 0 -790 90 0 0 1zm0 87l0 615c92,-2 189,-21 260,-84 68,-59 106,-132 106,-224 0,-92 -39,-165 -106,-224 -71,-62 -168,-81 -260,-83zm788 385l-311 -473 105 0 251 381 252 -381 105 0 -312 473 0 317 -90 0 0 -317z"/>
  <path class="fil1" d="M3006 5132c17,-77 54,-146 112,-205 80,-83 178,-125 292,-125 114,0 212,42 293,125 80,83 121,184 121,301 0,118 -41,219 -121,302 -81,83 -179,125 -293,125 -114,0 -212,-42 -293,-125 -80,-83 -121,-184 -121,-302 0,-19 1,-38 3,-56 -11,49 -36,93 -73,131 -22,23 -48,42 -76,56l181 287 -151 0 -161 -259 -71 0 0 259 -125 0 0 -833 235 0 3 0c64,9 120,37 165,84 54,56 82,124 82,203 0,11 -1,21 -2,32zm-651 341l0 -249 125 0 0 304 -13 13c-77,76 -170,114 -276,114 -113,0 -212,-42 -292,-125 -80,-82 -121,-184 -121,-301 0,-117 41,-218 121,-300 80,-83 179,-125 292,-125 106,0 200,37 278,111l34 32 -93 87 -28 -26c-55,-50 -118,-74 -191,-74 -80,0 -147,28 -203,86 -56,58 -84,127 -84,209 0,83 27,152 84,210 56,58 123,87 203,87 61,0 115,-17 164,-53zm1942 -660l125 0 0 583 0 3c-9,65 -36,122 -82,169 -54,56 -120,84 -196,84 -77,0 -143,-28 -198,-84 -54,-55 -81,-124 -81,-202l0 -553 125 0 0 553c0,44 15,80 45,111 30,31 66,46 109,46 42,0 78,-15 108,-46 30,-31 45,-67 45,-111l0 -553zm302 574l0 259 -125 0 0 -833 235 0 3 0c64,9 119,37 165,84 54,56 81,124 81,203 0,79 -27,147 -81,203 -54,56 -121,84 -197,84l-81 0zm-1951 -445l0 316 81 0c43,0 78,-15 109,-46 30,-32 45,-68 45,-112 0,-44 -15,-81 -45,-112 -31,-31 -66,-46 -109,-46l-81 0zm762 -10c-80,0 -147,28 -204,87 -56,58 -84,127 -84,209 0,83 28,152 84,210 57,59 124,88 204,88 80,0 147,-29 204,-88 57,-58 84,-127 84,-210 0,-82 -27,-151 -84,-209 -57,-59 -124,-87 -204,-87zm1189 10l0 316 81 0c43,0 78,-15 108,-46 30,-32 45,-68 45,-112 0,-44 -14,-81 -45,-112 -30,-31 -65,-46 -108,-46l-81 0z"/>
  <path class="fil1" d="M2376 5484l0 -238 83 0 0 273 -7 6c-72,72 -160,108 -261,108 -108,0 -201,-39 -277,-118 -77,-79 -115,-174 -115,-286 0,-111 39,-206 115,-285 76,-79 169,-118 277,-118 101,0 189,35 264,105l17 16 -62 58 -14 -13c-59,-54 -127,-80 -205,-80 -85,0 -157,31 -218,93 -60,62 -90,136 -90,224 0,88 30,163 90,225 61,62 133,93 218,93 69,0 131,-20 185,-63zm354 -119c0,0 0,0 -1,0l-102 0 0 259 -83 0 0 -789 213 0 1 0c60,8 111,34 153,77 50,52 76,115 76,188 0,73 -25,136 -76,188 -26,27 -57,48 -92,61l173 275 -100 0 -162 -259zm-103 -445l0 359 102 0c49,0 89,-17 123,-52 35,-35 52,-77 52,-127 0,-50 -17,-92 -52,-127 -34,-35 -74,-53 -123,-53l-102 0zm783 -96c108,0 201,40 278,118 76,79 115,175 115,286 0,112 -39,208 -115,286 -77,79 -170,119 -278,119 -108,0 -201,-40 -278,-119 -76,-78 -115,-174 -115,-286 0,-111 39,-207 115,-286 77,-78 170,-118 278,-118zm0 86c-85,0 -158,31 -219,93 -60,63 -90,137 -90,225 0,89 30,163 90,226 61,62 133,93 219,93 86,0 158,-31 219,-93 60,-63 90,-137 90,-226 0,-88 -30,-162 -90,-225 -61,-62 -133,-93 -219,-93zm908 -75l83 0 0 559 0 2c-8,61 -33,114 -75,157 -51,52 -112,78 -182,78 -71,0 -133,-26 -183,-78 -50,-52 -75,-114 -75,-187l0 -531 83 0 0 531c0,49 17,91 51,126 34,36 75,53 124,53 48,0 89,-17 123,-53 34,-35 51,-77 51,-126l0 -531zm260 530l0 259 -83 0 0 -789 213 0 1 0c59,8 111,34 153,77 50,52 75,115 75,188 0,73 -25,136 -75,188 -50,51 -111,77 -182,77l-102 0zm0 -445l0 359 102 0c48,0 89,-17 123,-52 34,-35 51,-77 51,-127 0,-50 -17,-92 -51,-127 -34,-35 -75,-53 -123,-53l-102 0z"/>
  <path class="fil1" d="M3436 2585c-129,120 -259,240 -396,354l-11 9 -13 -5c-49,-17 -86,-52 -122,-87 -13,-13 -27,-26 -41,-38l-17 14c-80,64 -164,131 -244,198l6 -1c46,-13 92,-26 127,-36 35,-30 70,-59 108,-89l17 -13 15 14c34,32 74,61 117,87 40,24 83,46 126,66 17,-12 38,-28 63,-49 25,-22 55,-47 89,-79l15 -14 16 12c43,31 78,65 112,100 9,9 19,18 28,28 18,-26 35,-50 51,-74 40,-59 80,-118 126,-177l16 -20 19 16c45,37 88,75 130,114 35,32 68,63 100,95 4,-6 8,-11 12,-16 10,-12 22,-23 42,-38l13 -9 14 8c45,25 80,42 116,57 37,16 74,29 125,47l0 0c5,1 11,3 17,5 18,6 41,13 64,21 -12,-11 -25,-22 -37,-34 -42,-38 -85,-77 -128,-117 -82,-18 -169,-37 -234,-94l0 0c-57,-49 -113,-101 -170,-153 -63,-59 -127,-117 -194,-174 -19,18 -48,45 -77,72zm-157 424c-21,19 -42,38 -64,56 -26,21 -52,42 -79,61l-21 15 -23 -11c-49,-23 -98,-47 -145,-75 -35,-21 -69,-45 -100,-71 -28,23 -55,46 -82,68l-7 7 -9 3c-45,12 -89,25 -133,37 -38,10 -77,21 -115,32l-192 54 151 -134c108,-96 221,-186 333,-276 11,-9 22,-18 32,-26l27 -21 27 20c23,16 43,36 63,55 23,22 47,47 75,62 128,-107 250,-220 372,-334 31,-29 62,-57 93,-86l28 -26 30 24c74,61 144,125 214,190 55,51 110,102 167,151l1 1 0 0c55,47 139,64 207,79l15 3 9 9c44,40 88,81 132,121 41,37 81,73 122,109l137 121 -176 -40c-33,-8 -66,-18 -97,-28 -27,-9 -53,-17 -80,-26 -5,-1 -11,-3 -17,-5l-1 -1 -1 0c-43,-15 -87,-30 -129,-48 -33,-14 -65,-30 -97,-47 -3,3 -6,6 -8,9 -7,9 -13,20 -18,30l-26 57 -45 -43c-41,-39 -81,-78 -122,-117 -30,-27 -61,-55 -92,-81 -33,45 -64,90 -96,136 -22,33 -44,66 -67,99l-30 41 -37 -34c-17,-16 -34,-33 -51,-50 -24,-24 -49,-48 -75,-70zm-72 -374c-62,56 -124,111 -169,153l-20 18 -19 -17c-17,-14 -42,-37 -68,-59 -26,-23 -52,-46 -79,-68 -331,299 -664,607 -996,914l-23 22c954,0 1908,0 2862,0l306 0c-249,-227 -484,-445 -720,-664l-84 -78c-13,-2 -27,-4 -41,-6 -68,-10 -140,-20 -199,-76l0 0c-84,-72 -162,-147 -240,-222 -69,-66 -137,-132 -207,-193 -100,94 -201,185 -303,276zm-190 62c46,-42 92,-83 138,-124 107,-97 215,-194 321,-294l32 -30 34 29c79,68 154,141 229,213 78,75 156,150 237,220l2 1 0 1c43,39 103,47 157,55 18,3 35,5 53,9l14 2 10 10c30,28 60,56 90,84 259,240 518,480 779,717l99 90 -517 1c-980,0 -1960,0 -2940,-1l-131 0 179 -165c337,-313 674,-625 1016,-933l31 -28 33 27c34,28 67,57 100,86 11,10 23,20 34,30z"/>
  <path class="fil1" d="M3020 2889c131,-109 257,-226 382,-342 24,-22 47,-44 93,-87l16 -14 17 13c73,60 143,125 213,190 54,50 109,101 168,151l0 0c57,50 138,68 216,84l3 1 6 2 5 4c43,40 88,81 133,122 40,36 81,72 122,109l76 67 -98 -23c-40,-9 -126,-37 -175,-52 -6,-2 -12,-4 -17,-6l0 0c-53,-18 -92,-32 -129,-48 -34,-15 -67,-31 -107,-52 -10,7 -16,13 -21,20 -7,8 -13,18 -21,34l-15 32 -24 -24c-42,-40 -83,-80 -123,-117 -35,-33 -71,-65 -108,-96 -39,52 -74,103 -109,154 -23,34 -46,68 -68,99l-16 23 -21 -19c-16,-16 -33,-33 -50,-49 -28,-28 -56,-57 -90,-83 -28,26 -53,48 -76,67 -31,26 -58,46 -77,60l-12 8 -13 -6c-48,-22 -97,-47 -143,-74 -39,-24 -77,-50 -110,-79 -31,25 -63,52 -94,79l0 0 -5 3 -5 2c-48,13 -90,25 -132,37 -47,13 -93,26 -115,32l-107 30 84 -75c104,-92 222,-186 332,-275 11,-9 22,-17 33,-26l14 -12 15 12c22,16 42,35 61,53 29,28 58,56 92,71zm259 120c-21,19 -42,38 -64,56 -26,21 -52,42 -79,61l-21 15 -23 -11c-49,-23 -98,-47 -145,-75 -35,-21 -69,-45 -100,-71 -28,23 -55,46 -82,68l-7 7 -9 3c-45,12 -89,25 -133,37 -38,10 -77,21 -115,32l-192 54 151 -134c108,-96 221,-186 333,-276 11,-9 22,-18 32,-26l27 -21 27 20c23,16 43,36 63,55 23,22 47,47 75,62 128,-107 250,-220 372,-334 31,-29 62,-57 93,-86l28 -26 30 24c74,61 144,125 214,190 55,51 110,102 167,151l1 1 0 0c55,47 139,64 207,79l15 3 9 9c44,40 88,81 132,121 41,37 81,73 122,109l137 121 -176 -40c-33,-8 -66,-18 -97,-28 -27,-9 -53,-17 -80,-26 -5,-1 -11,-3 -17,-5l-1 -1 -1 0c-43,-15 -87,-30 -129,-48 -33,-14 -65,-30 -97,-47 -3,3 -6,6 -8,9 -7,9 -13,20 -18,30l-26 57 -45 -43c-41,-39 -81,-78 -122,-117 -30,-27 -61,-55 -92,-81 -33,45 -64,90 -96,136 -22,33 -44,66 -67,99l-30 41 -37 -34c-17,-16 -34,-33 -51,-50 -24,-24 -49,-48 -75,-70zm-262 -285c58,-52 104,-94 151,-136 109,-97 217,-195 321,-293l20 -19 20 18c80,69 154,141 228,212 79,76 157,152 239,222l1 0c46,43 108,52 167,61 18,2 35,5 52,8l8 2 7 5c30,28 60,56 90,84 261,242 520,482 779,718l59 54 -79 0 -385 0c-980,0 -1960,0 -2940,0l-79 0 59 -54 81 -76c335,-310 672,-622 1016,-932l19 -17 19 16c34,28 67,57 100,86 14,12 29,25 47,41zm0 -27c46,-42 92,-83 138,-124 107,-97 215,-194 321,-294l32 -30 34 29c79,68 154,141 229,213 78,75 156,150 237,220l2 1 0 1c43,39 103,47 157,55 18,3 35,5 53,9l14 2 10 10c30,28 60,56 90,84 259,240 518,480 779,717l99 90 -517 1c-980,0 -1960,0 -2940,-1l-131 0 179 -165c337,-313 674,-625 1016,-933l31 -28 33 27c34,28 67,57 100,86 11,10 23,20 34,30z"/>
  <path class="fil1" d="M2130 4253c-57,-16 -113,-41 -158,-81 -43,-37 -68,-86 -68,-145 0,-58 25,-106 67,-143l1 0c44,-40 97,-57 155,-57 57,0 110,18 154,56 23,20 42,44 53,73l15 42 -120 42 -16 -36c-4,-10 -12,-19 -20,-26 -19,-17 -41,-23 -66,-23 -25,0 -48,6 -67,23 -15,13 -24,28 -24,49 0,21 9,36 24,49 25,22 57,37 86,50 68,19 132,51 186,98 56,49 89,112 89,189 0,77 -32,140 -89,189 -59,52 -129,75 -205,75 -77,0 -147,-24 -206,-75 -44,-39 -75,-87 -85,-146l-6 -38 128 -41 6 52c4,32 21,57 45,78 34,30 74,42 118,42 44,0 84,-12 118,-42 28,-25 45,-55 45,-94 0,-40 -17,-69 -45,-94 -34,-30 -74,-51 -115,-66zm608 -289l0 705 -132 0 0 -705 -216 0 0 -128 563 0 0 128 -215 0zm746 -128l132 0 0 583 0 3c-11,69 -44,126 -96,171 -64,57 -140,82 -223,82 -84,0 -160,-25 -225,-82 -61,-53 -96,-121 -96,-205l0 -552 132 0 0 552c0,46 20,80 53,109 39,35 85,49 136,49 50,0 96,-14 135,-49 33,-29 52,-63 52,-109l0 -552zm340 1c113,5 227,34 315,112 90,79 142,180 142,303 0,124 -52,224 -142,304 -88,77 -202,106 -315,111l0 2 -132 0 0 -833 132 0 0 1zm746 500l-330 -501 156 0 240 364 240 -364 157 0 -331 501 0 332 -132 0 0 -332zm-746 -370l0 571c80,-5 164,-24 226,-79 62,-54 98,-121 98,-207 0,-85 -36,-152 -98,-207 -62,-54 -146,-74 -226,-78z"/>
  <path class="fil1" d="M2136 4233c-53,-16 -108,-40 -151,-77 -38,-34 -60,-77 -60,-129 0,-51 22,-94 60,-127l0 0c41,-35 89,-51 142,-51 53,0 100,16 141,51 20,17 37,38 46,64l8 21 -82 29 -7 -19c-6,-13 -16,-24 -26,-34 -23,-20 -50,-28 -80,-28 -31,0 -57,8 -81,29 -20,17 -31,38 -31,65 0,27 12,48 31,66 27,23 62,40 94,53 65,19 127,49 179,94 51,45 81,102 81,173 0,70 -30,127 -81,173 -55,48 -120,70 -192,70 -72,0 -137,-22 -192,-71 -41,-35 -69,-79 -78,-133l-4 -19 88 -27 3 25c4,38 24,68 51,92 38,34 82,48 132,48 49,0 94,-14 131,-48 34,-29 53,-65 53,-110 0,-46 -19,-82 -53,-111 -35,-31 -78,-53 -122,-69zm581 -290l0 704 -90 0 0 -704 -216 0 0 -86 521 0 0 86 -215 0zm788 -86l90 0 0 560 0 2c-10,64 -41,116 -88,158 -61,53 -132,76 -210,76 -79,0 -151,-23 -211,-76 -56,-49 -89,-112 -89,-189l0 -531 90 0 0 531c0,52 23,93 61,126 42,37 93,54 149,54 55,0 106,-17 148,-54 38,-33 60,-74 60,-126l0 -531zm298 1c115,3 233,28 322,107 86,76 135,170 135,287 0,117 -49,212 -135,287 -89,79 -207,104 -322,107l0 1 -90 0 0 -790 90 0 0 1zm0 87l0 615c92,-2 189,-21 260,-84 68,-59 106,-132 106,-224 0,-92 -39,-165 -106,-224 -71,-62 -168,-81 -260,-83zm788 385l-311 -473 105 0 251 381 252 -381 105 0 -312 473 0 317 -90 0 0 -317z"/>
  <path class="fil1" d="M3006 5132c17,-77 54,-146 112,-205 80,-83 178,-125 292,-125 114,0 212,42 293,125 80,83 121,184 121,301 0,118 -41,219 -121,302 -81,83 -179,125 -293,125 -114,0 -212,-42 -293,-125 -80,-83 -121,-184 -121,-302 0,-19 1,-38 3,-56 -11,49 -36,93 -73,131 -22,23 -48,42 -76,56l181 287 -151 0 -161 -259 -71 0 0 259 -125 0 0 -833 235 0 3 0c64,9 120,37 165,84 54,56 82,124 82,203 0,11 -1,21 -2,32zm-651 341l0 -249 125 0 0 304 -13 13c-77,76 -170,114 -276,114 -113,0 -212,-42 -292,-125 -80,-82 -121,-184 -121,-301 0,-117 41,-218 121,-300 80,-83 179,-125 292,-125 106,0 200,37 278,111l34 32 -93 87 -28 -26c-55,-50 -118,-74 -191,-74 -80,0 -147,28 -203,86 -56,58 -84,127 -84,209 0,83 27,152 84,210 56,58 123,87 203,87 61,0 115,-17 164,-53zm1942 -660l125 0 0 583 0 3c-9,65 -36,122 -82,169 -54,56 -120,84 -196,84 -77,0 -143,-28 -198,-84 -54,-55 -81,-124 -81,-202l0 -553 125 0 0 553c0,44 15,80 45,111 30,31 66,46 109,46 42,0 78,-15 108,-46 30,-31 45,-67 45,-111l0 -553zm302 574l0 259 -125 0 0 -833 235 0 3 0c64,9 119,37 165,84 54,56 81,124 81,203 0,79 -27,147 -81,203 -54,56 -121,84 -197,84l-81 0zm-1951 -445l0 316 81 0c43,0 78,-15 109,-46 30,-32 45,-68 45,-112 0,-44 -15,-81 -45,-112 -31,-31 -66,-46 -109,-46l-81 0zm762 -10c-80,0 -147,28 -204,87 -56,58 -84,127 -84,209 0,83 28,152 84,210 57,59 124,88 204,88 80,0 147,-29 204,-88 57,-58 84,-127 84,-210 0,-82 -27,-151 -84,-209 -57,-59 -124,-87 -204,-87zm1189 10l0 316 81 0c43,0 78,-15 108,-46 30,-32 45,-68 45,-112 0,-44 -14,-81 -45,-112 -30,-31 -65,-46 -108,-46l-81 0z"/>
  <path class="fil1" d="M2376 5484l0 -238 83 0 0 273 -7 6c-72,72 -160,108 -261,108 -108,0 -201,-39 -277,-118 -77,-79 -115,-174 -115,-286 0,-111 39,-206 115,-285 76,-79 169,-118 277,-118 101,0 189,35 264,105l17 16 -62 58 -14 -13c-59,-54 -127,-80 -205,-80 -85,0 -157,31 -218,93 -60,62 -90,136 -90,224 0,88 30,163 90,225 61,62 133,93 218,93 69,0 131,-20 185,-63zm354 -119c0,0 0,0 -1,0l-102 0 0 259 -83 0 0 -789 213 0 1 0c60,8 111,34 153,77 50,52 76,115 76,188 0,73 -25,136 -76,188 -26,27 -57,48 -92,61l173 275 -100 0 -162 -259zm-103 -445l0 359 102 0c49,0 89,-17 123,-52 35,-35 52,-77 52,-127 0,-50 -17,-92 -52,-127 -34,-35 -74,-53 -123,-53l-102 0zm783 -96c108,0 201,40 278,118 76,79 115,175 115,286 0,112 -39,208 -115,286 -77,79 -170,119 -278,119 -108,0 -201,-40 -278,-119 -76,-78 -115,-174 -115,-286 0,-111 39,-207 115,-286 77,-78 170,-118 278,-118zm0 86c-85,0 -158,31 -219,93 -60,63 -90,137 -90,225 0,89 30,163 90,226 61,62 133,93 219,93 86,0 158,-31 219,-93 60,-63 90,-137 90,-226 0,-88 -30,-162 -90,-225 -61,-62 -133,-93 -219,-93zm908 -75l83 0 0 559 0 2c-8,61 -33,114 -75,157 -51,52 -112,78 -182,78 -71,0 -133,-26 -183,-78 -50,-52 -75,-114 -75,-187l0 -531 83 0 0 531c0,49 17,91 51,126 34,36 75,53 124,53 48,0 89,-17 123,-53 34,-35 51,-77 51,-126l0 -531zm260 530l0 259 -83 0 0 -789 213 0 1 0c59,8 111,34 153,77 50,52 75,115 75,188 0,73 -25,136 -75,188 -50,51 -111,77 -182,77l-102 0zm0 -445l0 359 102 0c48,0 89,-17 123,-52 34,-35 51,-77 51,-127 0,-50 -17,-92 -51,-127 -34,-35 -75,-53 -123,-53l-102 0z"/>
  <path class="fil1" d="M3020 2889c131,-109 257,-226 382,-342 24,-22 47,-44 93,-87l16 -14 17 13c73,60 143,125 213,190 54,50 109,101 168,151l0 0c57,50 138,68 216,84l3 1 6 2 5 4c43,40 88,81 133,122 40,36 81,72 122,109l76 67 -98 -23c-40,-9 -126,-37 -175,-52 -6,-2 -12,-4 -17,-6l0 0c-53,-18 -92,-32 -129,-48 -34,-15 -67,-31 -107,-52 -10,7 -16,13 -21,20 -7,8 -13,18 -21,34l-15 32 -24 -24c-42,-40 -83,-80 -123,-117 -35,-33 -71,-65 -108,-96 -39,52 -74,103 -109,154 -23,34 -46,68 -68,99l-16 23 -21 -19c-16,-16 -33,-33 -50,-49 -28,-28 -56,-57 -90,-83 -28,26 -53,48 -76,67 -31,26 -58,46 -77,60l-12 8 -13 -6c-48,-22 -97,-47 -143,-74 -39,-24 -77,-50 -110,-79 -31,25 -63,52 -94,79l0 0 -5 3 -5 2c-48,13 -90,25 -132,37 -47,13 -93,26 -115,32l-107 30 84 -75c104,-92 222,-186 332,-275 11,-9 22,-17 33,-26l14 -12 15 12c22,16 42,35 61,53 29,28 58,56 92,71zm259 120c-21,19 -42,38 -64,56 -26,21 -52,42 -79,61l-21 15 -23 -11c-49,-23 -98,-47 -145,-75 -35,-21 -69,-45 -100,-71 -28,23 -55,46 -82,68l-7 7 -9 3c-45,12 -89,25 -133,37 -38,10 -77,21 -115,32l-192 54 151 -134c108,-96 221,-186 333,-276 11,-9 22,-18 32,-26l27 -21 27 20c23,16 43,36 63,55 23,22 47,47 75,62 128,-107 250,-220 372,-334 31,-29 62,-57 93,-86l28 -26 30 24c74,61 144,125 214,190 55,51 110,102 167,151l1 1 0 0c55,47 139,64 207,79l15 3 9 9c44,40 88,81 132,121 41,37 81,73 122,109l137 121 -176 -40c-33,-8 -66,-18 -97,-28 -27,-9 -53,-17 -80,-26 -5,-1 -11,-3 -17,-5l-1 -1 -1 0c-43,-15 -87,-30 -129,-48 -33,-14 -65,-30 -97,-47 -3,3 -6,6 -8,9 -7,9 -13,20 -18,30l-26 57 -45 -43c-41,-39 -81,-78 -122,-117 -30,-27 -61,-55 -92,-81 -33,45 -64,90 -96,136 -22,33 -44,66 -67,99l-30 41 -37 -34c-17,-16 -34,-33 -51,-50 -24,-24 -49,-48 -75,-70zm-262 -285c58,-52 104,-94 151,-136 109,-97 217,-195 321,-293l20 -19 20 18c80,69 154,141 228,212 79,76 157,152 239,222l1 0c46,43 108,52 167,61 18,2 35,5 52,8l8 2 7 5c30,28 60,56 90,84 261,242 520,482 779,718l59 54 -79 0 -385 0c-980,0 -1960,0 -2940,0l-79 0 59 -54 81 -76c335,-310 672,-622 1016,-932l19 -17 19 16c34,28 67,57 100,86 14,12 29,25 47,41zm0 -27c46,-42 92,-83 138,-124 107,-97 215,-194 321,-294l32 -30 34 29c79,68 154,141 229,213 78,75 156,150 237,220l2 1 0 1c43,39 103,47 157,55 18,3 35,5 53,9l14 2 10 10c30,28 60,56 90,84 259,240 518,480 779,717l99 90 -517 1c-980,0 -1960,0 -2940,-1l-131 0 179 -165c337,-313 674,-625 1016,-933l31 -28 33 27c34,28 67,57 100,86 11,10 23,20 34,30z"/>
  <path class="fil1" d="M2424 1533c26,12 50,28 72,45 71,53 118,124 118,217 0,92 -48,164 -118,218 -63,47 -134,72 -210,79l0 3 -282 0 0 -833 223 0c57,0 112,14 159,48 44,32 73,77 73,134 0,35 -14,64 -35,89zm413 -271l0 833 -141 0 0 -833 141 0zm540 271c25,12 49,28 71,45 71,53 119,124 119,217 0,92 -48,164 -119,218 -62,47 -133,72 -209,79l0 3 -282 0 0 -833 223 0c57,0 111,14 158,48 44,32 74,77 74,134 0,35 -14,64 -35,89zm400 433l395 0 0 129 -536 0 0 -833 141 0 0 704zm605 -575l0 223 452 0 0 129 -452 0 0 223 452 0 0 129 -593 0 0 -833 593 0 0 129 -452 0zm-2236 235l0 340 105 0c55,-4 106,-20 151,-55l0 0c38,-29 68,-65 68,-116 0,-51 -29,-87 -67,-115 -53,-39 -115,-54 -180,-54l-77 0zm0 -235l0 104 95 0c21,-2 42,-7 60,-19 11,-8 19,-17 19,-32 0,-16 -8,-25 -20,-34 -21,-15 -47,-19 -73,-19l-81 0zm952 235l0 340 105 0c56,-4 107,-20 152,-55l0 0c38,-29 68,-65 68,-116 0,-51 -29,-87 -68,-115 -53,-39 -115,-54 -180,-54l-77 0zm0 -235l0 104 95 0c21,-2 42,-7 60,-19 12,-8 20,-17 20,-32 0,-16 -9,-25 -21,-34 -21,-15 -47,-19 -72,-19l-82 0z"/>
  <path class="fil1" d="M2386 1541c35,12 68,31 97,55 66,48 110,113 110,199 0,85 -45,151 -110,200 -65,49 -139,73 -218,77l0 1 -240 0 0 -789 202 0c53,0 103,12 146,44 39,28 65,66 65,116 0,40 -23,72 -52,97zm-261 63l0 384 127 0c59,-4 114,-22 163,-59l0 0c44,-34 76,-76 76,-134 0,-58 -32,-100 -76,-133 -57,-41 -123,-58 -192,-58l-98 0zm0 -235l0 147 116 0c25,-1 50,-8 71,-22 18,-12 29,-28 29,-50 0,-23 -11,-39 -29,-52 -25,-17 -55,-23 -85,-23l-102 0zm691 -85l0 789 -99 0 0 -789 99 0zm523 257c35,12 67,31 97,55 65,48 110,113 110,199 0,85 -45,151 -110,200 -65,49 -139,73 -218,77l0 1 -240 0 0 -789 202 0c53,0 103,12 146,44 38,28 65,66 65,116 0,40 -23,72 -52,97zm-262 63l0 384 127 0c60,-4 115,-22 163,-59l0 0c44,-34 77,-76 77,-134 0,-58 -32,-100 -76,-133 -57,-41 -123,-58 -193,-58l-98 0zm0 -235l0 147 117 0c25,-1 49,-8 71,-22 17,-12 29,-28 29,-50 0,-23 -12,-39 -30,-52 -25,-17 -54,-23 -84,-23l-103 0zm679 619l395 0 0 85 -494 0 0 -789 99 0 0 704zm605 -619l0 267 452 0 0 85 -452 0 0 267 452 0 0 85 -551 0 0 -789 551 0 0 85 -452 0z"/>
  <path class="fil1" d="M2424 1533c26,12 50,28 72,45 71,53 118,124 118,217 0,92 -48,164 -118,218 -63,47 -134,72 -210,79l0 3 -282 0 0 -833 223 0c57,0 112,14 159,48 44,32 73,77 73,134 0,35 -14,64 -35,89zm413 -271l0 833 -141 0 0 -833 141 0zm540 271c25,12 49,28 71,45 71,53 119,124 119,217 0,92 -48,164 -119,218 -62,47 -133,72 -209,79l0 3 -282 0 0 -833 223 0c57,0 111,14 158,48 44,32 74,77 74,134 0,35 -14,64 -35,89zm400 433l395 0 0 129 -536 0 0 -833 141 0 0 704zm605 -575l0 223 452 0 0 129 -452 0 0 223 452 0 0 129 -593 0 0 -833 593 0 0 129 -452 0zm-2236 235l0 340 105 0c55,-4 106,-20 151,-55l0 0c38,-29 68,-65 68,-116 0,-51 -29,-87 -67,-115 -53,-39 -115,-54 -180,-54l-77 0zm0 -235l0 104 95 0c21,-2 42,-7 60,-19 11,-8 19,-17 19,-32 0,-16 -8,-25 -20,-34 -21,-15 -47,-19 -73,-19l-81 0zm952 235l0 340 105 0c56,-4 107,-20 152,-55l0 0c38,-29 68,-65 68,-116 0,-51 -29,-87 -68,-115 -53,-39 -115,-54 -180,-54l-77 0zm0 -235l0 104 95 0c21,-2 42,-7 60,-19 12,-8 20,-17 20,-32 0,-16 -9,-25 -21,-34 -21,-15 -47,-19 -72,-19l-82 0z"/>
  <path class="fil1" d="M2386 1541c35,12 68,31 97,55 66,48 110,113 110,199 0,85 -45,151 -110,200 -65,49 -139,73 -218,77l0 1 -240 0 0 -789 202 0c53,0 103,12 146,44 39,28 65,66 65,116 0,40 -23,72 -52,97zm-261 63l0 384 127 0c59,-4 114,-22 163,-59l0 0c44,-34 76,-76 76,-134 0,-58 -32,-100 -76,-133 -57,-41 -123,-58 -192,-58l-98 0zm0 -235l0 147 116 0c25,-1 50,-8 71,-22 18,-12 29,-28 29,-50 0,-23 -11,-39 -29,-52 -25,-17 -55,-23 -85,-23l-102 0zm691 -85l0 789 -99 0 0 -789 99 0zm523 257c35,12 67,31 97,55 65,48 110,113 110,199 0,85 -45,151 -110,200 -65,49 -139,73 -218,77l0 1 -240 0 0 -789 202 0c53,0 103,12 146,44 38,28 65,66 65,116 0,40 -23,72 -52,97zm-262 63l0 384 127 0c60,-4 115,-22 163,-59l0 0c44,-34 77,-76 77,-134 0,-58 -32,-100 -76,-133 -57,-41 -123,-58 -193,-58l-98 0zm0 -235l0 147 117 0c25,-1 49,-8 71,-22 17,-12 29,-28 29,-50 0,-23 -12,-39 -30,-52 -25,-17 -54,-23 -84,-23l-103 0zm679 619l395 0 0 85 -494 0 0 -789 99 0 0 704zm605 -619l0 267 452 0 0 85 -452 0 0 267 452 0 0 85 -551 0 0 -789 551 0 0 85 -452 0z"/>
 </g>
</svg>
