<?xml version="1.0" encoding="UTF-8"?>
<!DOCTYPE svg PUBLIC "-//W3C//DTD SVG 1.1//EN" "http://www.w3.org/Graphics/SVG/1.1/DTD/svg11.dtd">
<!-- Creator: CorelDRAW X7 -->
<svg xmlns="http://www.w3.org/2000/svg" xml:space="preserve" width="52.5527mm" height="52.5876mm" version="1.1" style="shape-rendering:geometricPrecision; text-rendering:geometricPrecision; image-rendering:optimizeQuality; fill-rule:evenodd; clip-rule:evenodd"
viewBox="0 0 6501 6505"
 xmlns:xlink="http://www.w3.org/1999/xlink">
 <defs>
  <style type="text/css">
   <![CDATA[
    .fil0 {fill:#FEFEFE}
   ]]>
  </style>
 </defs>
 <g id="Слой_x0020_1">
  <metadata id="CorelCorpID_0Corel-Layer"/>
  <path class="fil0" d="M1943 4100c-57,-17 -115,-42 -161,-82 -43,-38 -68,-88 -68,-147 0,-59 25,-108 68,-146l0 0c45,-40 99,-57 158,-57 58,0 111,18 157,56 23,21 42,45 53,75l16 43 -123 42 -15 -37c-5,-10 -12,-19 -21,-26 -19,-17 -42,-24 -67,-24 -26,0 -48,7 -68,24 -15,13 -24,29 -24,50 0,21 9,36 24,50 25,21 58,37 88,50 69,20 133,52 188,99 57,50 90,114 90,192 0,78 -32,142 -90,192 -59,53 -130,77 -208,77 -78,0 -149,-25 -209,-77 -44,-39 -76,-88 -86,-148l-7 -38 131 -42 6 52c4,33 21,59 45,80 35,30 75,43 120,43 45,0 85,-13 120,-43 29,-26 46,-56 46,-96 0,-40 -18,-70 -46,-95 -35,-30 -75,-51 -117,-67zm617 -293l0 715 -134 0 0 -715 -219 0 0 -131 572 0 0 131 -219 0zm757 -131l135 0 0 592 -1 4c-11,70 -45,128 -97,174 -65,57 -142,82 -227,82 -85,0 -162,-25 -227,-82 -62,-55 -98,-124 -98,-209l0 -561 134 0 0 561c0,46 20,82 54,111 39,35 85,49 137,49 52,0 98,-14 137,-49 34,-29 53,-65 53,-111l0 -561zm345 2c115,5 231,35 320,113 91,81 145,183 145,308 0,125 -53,228 -145,308 -89,78 -205,108 -320,113l0 2 -133 0 0 -846 133 0 0 2zm758 507l-335 -509 158 0 244 370 244 -370 158 0 -335 509 0 337 -134 0 0 -337zm-758 -375l0 579c82,-5 167,-24 230,-80 63,-55 100,-123 100,-210 0,-87 -37,-155 -100,-210 -63,-55 -149,-75 -230,-79z"/>
  <path class="fil0" d="M1949 4079c-54,-16 -109,-40 -153,-78 -39,-34 -61,-77 -61,-130 0,-52 23,-95 61,-129l0 0c41,-36 90,-53 144,-53 53,0 102,17 143,52 21,18 38,40 47,66l8 21 -83 29 -8 -18c-6,-14 -15,-25 -26,-35 -23,-20 -51,-29 -81,-29 -31,0 -58,9 -82,29 -20,18 -32,39 -32,67 0,28 12,49 32,67 27,23 62,40 95,54 66,19 129,49 181,95 53,46 83,104 83,175 0,72 -30,130 -82,176 -56,49 -122,71 -195,71 -73,0 -139,-23 -195,-72 -41,-35 -70,-80 -79,-135l-4 -19 89 -28 3 26c5,38 24,69 53,93 38,34 83,49 133,49 50,0 95,-15 133,-49 34,-29 54,-66 54,-112 0,-46 -20,-82 -54,-112 -36,-32 -79,-54 -124,-71zm590 -294l0 715 -91 0 0 -715 -219 0 0 -87 529 0 0 87 -219 0zm800 -87l91 0 0 569 0 1c-10,65 -41,118 -90,161 -61,53 -133,77 -213,77 -80,0 -152,-24 -214,-77 -57,-50 -90,-114 -90,-192l0 -539 92 0 0 539c0,53 22,94 61,128 43,38 94,54 151,54 57,0 108,-16 151,-54 38,-34 61,-75 61,-128l0 -539zm302 2c117,2 237,28 327,108 87,76 137,172 137,291 0,119 -50,215 -137,291 -90,80 -210,106 -327,109l0 1 -91 0 0 -802 91 0 0 2zm0 87l0 625c93,-2 192,-22 264,-86 69,-60 108,-134 108,-227 0,-93 -40,-167 -108,-227 -72,-63 -171,-83 -264,-85zm800 391l-316 -480 107 0 255 387 255 -387 107 0 -317 480 0 322 -91 0 0 -322z"/>
  <path class="fil0" d="M2832 4992c17,-78 55,-148 113,-208 82,-84 182,-127 297,-127 116,0 215,43 297,127 82,84 123,187 123,306 0,119 -41,222 -123,306 -81,84 -181,127 -297,127 -115,0 -215,-43 -297,-127 -81,-84 -123,-187 -123,-306 0,-20 1,-39 4,-58 -12,50 -37,95 -75,134 -23,23 -48,42 -77,57l183 291 -152 0 -164 -263 -72 0 0 263 -127 0 0 -846 239 0 3 1c64,9 121,37 167,85 55,56 83,125 83,205 0,11 -1,22 -2,33zm-660 346l0 -253 126 0 0 309 -13 13c-78,77 -172,116 -280,116 -115,0 -215,-43 -296,-127 -82,-84 -123,-186 -123,-305 0,-119 41,-221 123,-305 81,-84 181,-127 296,-127 108,0 203,38 282,113l35 32 -94 88 -29 -26c-56,-50 -120,-75 -194,-75 -81,0 -149,29 -206,88 -57,59 -85,129 -85,212 0,83 28,154 85,213 57,59 125,88 206,88 62,0 117,-17 167,-54zm1970 -670l127 0 0 592 0 3c-9,66 -36,124 -82,172 -55,57 -123,85 -200,85 -78,0 -145,-28 -200,-85 -55,-56 -83,-126 -83,-206l0 -561 127 0 0 561c0,45 15,82 45,113 31,32 67,47 111,47 43,0 79,-15 110,-47 30,-31 45,-68 45,-113l0 -561zm307 583l0 263 -127 0 0 -846 239 0 3 1c64,9 121,37 167,85 55,56 83,125 83,205 0,81 -28,150 -83,207 -55,56 -122,85 -200,85l-82 0zm-1980 -452l0 321 82 0c44,0 80,-15 110,-47 31,-32 46,-69 46,-114 0,-44 -15,-81 -46,-113 -30,-31 -66,-47 -110,-47l-82 0zm773 -10c-81,0 -149,29 -207,88 -57,59 -85,129 -85,213 0,84 28,154 85,213 58,59 126,89 207,89 81,0 150,-30 207,-89 58,-59 86,-129 86,-213 0,-84 -28,-154 -86,-213 -57,-59 -126,-88 -207,-88zm1207 10l0 321 82 0c43,0 79,-15 110,-47 31,-32 46,-69 46,-114 0,-44 -15,-81 -46,-113 -31,-31 -67,-47 -110,-47l-82 0z"/>
  <path class="fil0" d="M2193 5350l0 -243 84 0 0 278 -7 6c-74,73 -162,110 -265,110 -109,0 -204,-40 -281,-120 -78,-80 -117,-177 -117,-290 0,-113 39,-210 117,-290 77,-80 172,-120 281,-120 103,0 192,36 268,107l17 16 -63 59 -14 -13c-59,-54 -128,-81 -208,-81 -86,0 -160,31 -221,94 -61,63 -92,139 -92,228 0,89 31,165 92,228 61,63 135,95 221,95 70,0 133,-21 188,-64zm359 -121c0,0 0,0 -1,0l-103 0 0 263 -84 0 0 -802 216 0 1 0c60,9 112,35 155,79 51,53 77,116 77,190 0,75 -26,139 -77,191 -27,28 -58,49 -93,63l175 279 -102 0 -164 -263zm-104 -452l0 365 103 0c49,0 91,-18 125,-54 35,-35 52,-78 52,-129 0,-50 -17,-93 -52,-128 -34,-36 -76,-54 -125,-54l-103 0zm794 -98c110,0 204,41 282,121 78,80 117,177 117,290 0,113 -39,210 -117,290 -78,80 -172,121 -282,121 -110,0 -204,-41 -282,-121 -77,-80 -116,-177 -116,-290 0,-113 39,-210 116,-290 78,-80 172,-121 282,-121zm0 88c-86,0 -160,31 -222,95 -61,63 -92,139 -92,228 0,90 31,165 92,229 62,63 135,95 222,95 87,0 161,-32 222,-95 62,-64 92,-139 92,-229 0,-89 -30,-165 -92,-228 -61,-64 -135,-95 -222,-95zm922 -77l84 0 0 568 0 2c-8,62 -34,115 -76,159 -51,53 -113,79 -185,79 -72,0 -134,-26 -185,-79 -51,-52 -77,-116 -77,-190l0 -539 84 0 0 539c0,51 18,93 52,129 35,36 77,53 126,53 49,0 90,-17 125,-53 34,-36 52,-78 52,-129l0 -539zm263 539l0 263 -84 0 0 -802 216 0 2 0c60,9 112,35 155,79 51,53 76,116 76,190 0,75 -25,139 -76,191 -51,53 -113,79 -185,79l-104 0zm0 -452l0 365 104 0c49,0 90,-18 125,-54 35,-35 52,-78 52,-129 0,-50 -17,-93 -52,-128 -35,-36 -76,-54 -125,-54l-104 0z"/>
  <path class="fil0" d="M3268 2407c-131,122 -262,244 -401,359l-11 9 -13 -4c-51,-18 -87,-53 -124,-89 -14,-13 -28,-26 -42,-38l-17 14c-82,65 -167,133 -248,201l6 -1c47,-13 94,-27 129,-36 35,-31 71,-61 110,-91l16 -13 16 14c34,33 75,62 119,88 41,24 84,47 128,67 17,-12 38,-29 64,-50 25,-21 56,-48 90,-80l15 -14 16 12c45,32 79,67 114,101 9,10 19,19 29,29 18,-26 35,-50 51,-75 41,-60 82,-120 128,-180l16 -20 20 16c46,37 89,76 132,116 35,32 69,64 101,96 4,-6 8,-11 12,-16 11,-12 23,-23 43,-38l13 -10 14 8c46,26 81,43 118,59 37,16 76,29 127,47l0 0c5,1 11,3 18,6 18,5 40,13 64,20 -12,-11 -25,-22 -37,-34 -43,-38 -87,-78 -130,-118 -84,-19 -171,-38 -238,-96l0 0c-58,-50 -115,-102 -172,-155 -64,-60 -129,-120 -197,-177 -20,19 -49,46 -79,73zm-159 431c-21,19 -43,38 -65,56 -26,22 -52,43 -80,62l-21 15 -24 -11c-50,-23 -99,-48 -146,-76 -36,-22 -70,-45 -103,-72 -27,23 -55,46 -82,70l-8 6 -9 3c-45,13 -90,25 -135,38 -39,10 -77,21 -116,32l-195 55 153 -136c109,-98 224,-189 338,-280 11,-9 22,-18 33,-27l27 -21 27 20c23,17 44,37 64,57 23,22 48,47 77,62 129,-108 253,-224 377,-339 31,-29 63,-58 94,-87l29 -27 30 25c75,61 146,127 217,193 56,52 112,103 170,153l1 1 0 0c56,48 141,65 210,80l15 4 9 8c45,41 90,82 135,123 40,37 82,74 123,111l139 123 -179 -41c-32,-8 -66,-19 -98,-29 -27,-8 -54,-17 -81,-25 -6,-2 -11,-4 -17,-6l-2 -1 0 0c-44,-15 -88,-30 -131,-48 -34,-15 -66,-31 -98,-48 -4,3 -7,6 -9,9 -7,9 -13,21 -18,31l-27 58 -45 -44c-41,-40 -83,-80 -125,-119 -30,-28 -61,-56 -92,-82 -34,45 -66,91 -97,138 -23,33 -46,67 -69,100l-30 42 -38 -35c-17,-16 -35,-33 -52,-50 -24,-25 -49,-49 -76,-71zm-72 -380c-63,56 -126,113 -173,155l-19 18 -20 -17c-17,-14 -43,-37 -69,-60 -26,-23 -53,-46 -80,-69 -336,303 -674,616 -1011,928l-23 22c968,1 1936,0 2905,0l310 0c-253,-230 -491,-451 -731,-674l-85 -78c-14,-3 -27,-5 -42,-7 -69,-10 -141,-21 -202,-77l0 0c-85,-73 -164,-149 -244,-226 -69,-66 -138,-133 -209,-196 -102,97 -205,189 -307,281zm-194 63c47,-43 93,-85 140,-126 110,-99 219,-197 326,-298l33 -31 34 29c80,70 156,143 233,217 79,76 158,152 241,223l1 1 1 1c42,40 104,48 159,56 18,3 35,5 53,9l14 2 11 10c30,28 61,57 91,85 263,244 526,487 791,728l101 92 -525 0c-995,0 -1990,0 -2985,0l-132 0 181 -168c342,-317 684,-634 1031,-947l32 -28 33 27c35,28 68,58 102,87 11,10 23,21 34,31z"/>
  <path class="fil0" d="M2846 2716c134,-111 261,-230 388,-348 24,-22 48,-44 95,-87l16 -15 17 14c74,61 145,126 216,192 55,51 111,102 170,153l1 0c57,51 140,69 219,86l3 1 6 1 6 5c43,40 88,81 134,123 41,37 82,74 124,111l77 68 -99 -23c-41,-9 -128,-37 -178,-53 -6,-3 -12,-4 -17,-6l-1 0c-53,-18 -92,-33 -130,-49 -35,-15 -68,-31 -109,-53 -10,8 -16,14 -22,20 -7,9 -12,19 -20,36l-15 32 -25 -25c-42,-40 -84,-81 -125,-118 -36,-34 -72,-66 -110,-97 -39,52 -75,104 -110,156 -23,34 -46,68 -69,100l-16 23 -21 -19c-17,-16 -34,-33 -51,-50 -29,-29 -58,-57 -91,-84 -29,26 -55,49 -77,68 -33,27 -59,47 -80,61l-11 8 -13 -6c-50,-23 -99,-48 -145,-75 -40,-25 -78,-51 -112,-81 -32,26 -64,53 -96,80l0 0 -4 4 -6 2c-48,13 -91,25 -134,37 -47,13 -94,26 -116,33l-109 30 85 -75c106,-94 225,-190 338,-280 11,-9 21,-17 32,-26l15 -12 16 11c22,17 42,36 61,55 30,28 59,56 93,72zm263 122c-21,19 -43,38 -65,56 -26,22 -52,43 -80,62l-21 15 -24 -11c-50,-23 -99,-48 -146,-76 -36,-22 -70,-45 -103,-72 -27,23 -55,46 -82,70l-8 6 -9 3c-45,13 -90,25 -135,38 -39,10 -77,21 -116,32l-195 55 153 -136c109,-98 224,-189 338,-280 11,-9 22,-18 33,-27l27 -21 27 20c23,17 44,37 64,57 23,22 48,47 77,62 129,-108 253,-224 377,-339 31,-29 63,-58 94,-87l29 -27 30 25c75,61 146,127 217,193 56,52 112,103 170,153l1 1 0 0c56,48 141,65 210,80l15 4 9 8c45,41 90,82 135,123 40,37 82,74 123,111l139 123 -179 -41c-32,-8 -66,-19 -98,-29 -27,-8 -54,-17 -81,-25 -6,-2 -11,-4 -17,-6l-2 -1 0 0c-44,-15 -88,-30 -131,-48 -34,-15 -66,-31 -98,-48 -4,3 -7,6 -9,9 -7,9 -13,21 -18,31l-27 58 -45 -44c-41,-40 -83,-80 -125,-119 -30,-28 -61,-56 -92,-82 -34,45 -66,91 -97,138 -23,33 -46,67 -69,100l-30 42 -38 -35c-17,-16 -35,-33 -52,-50 -24,-25 -49,-49 -76,-71zm-265 -290c58,-53 105,-95 152,-138 111,-99 221,-198 327,-298l19 -18 21 18c81,70 157,143 232,215 80,77 159,154 242,225l1 1c47,43 109,52 170,61 17,2 35,5 52,8l9 2 6 6c31,28 61,56 92,85 264,245 527,489 790,728l61 55 -81 0 -390 0c-995,0 -1990,0 -2985,0l-79 0 59 -55 83 -77c340,-315 681,-631 1031,-946l19 -17 20 16c34,29 67,58 101,87 14,13 29,26 48,42zm-1 -27c47,-43 93,-85 140,-126 110,-99 219,-197 326,-298l33 -31 34 29c80,70 156,143 233,217 79,76 158,152 241,223l1 1 1 1c42,40 104,48 159,56 18,3 35,5 53,9l14 2 11 10c30,28 61,57 91,85 263,244 526,487 791,728l101 92 -525 0c-995,0 -1990,0 -2985,0l-132 0 181 -168c342,-317 684,-634 1031,-947l32 -28 33 27c35,28 68,58 102,87 11,10 23,21 34,31z"/>
  <path class="fil0" d="M1943 4100c-57,-17 -115,-42 -161,-82 -43,-38 -68,-88 -68,-147 0,-59 25,-108 68,-146l0 0c45,-40 99,-57 158,-57 58,0 111,18 157,56 23,21 42,45 53,75l16 43 -123 42 -15 -37c-5,-10 -12,-19 -21,-26 -19,-17 -42,-24 -67,-24 -26,0 -48,7 -68,24 -15,13 -24,29 -24,50 0,21 9,36 24,50 25,21 58,37 88,50 69,20 133,52 188,99 57,50 90,114 90,192 0,78 -32,142 -90,192 -59,53 -130,77 -208,77 -78,0 -149,-25 -209,-77 -44,-39 -76,-88 -86,-148l-7 -38 131 -42 6 52c4,33 21,59 45,80 35,30 75,43 120,43 45,0 85,-13 120,-43 29,-26 46,-56 46,-96 0,-40 -18,-70 -46,-95 -35,-30 -75,-51 -117,-67zm617 -293l0 715 -134 0 0 -715 -219 0 0 -131 572 0 0 131 -219 0zm757 -131l135 0 0 592 -1 4c-11,70 -45,128 -97,174 -65,57 -142,82 -227,82 -85,0 -162,-25 -227,-82 -62,-55 -98,-124 -98,-209l0 -561 134 0 0 561c0,46 20,82 54,111 39,35 85,49 137,49 52,0 98,-14 137,-49 34,-29 53,-65 53,-111l0 -561zm345 2c115,5 231,35 320,113 91,81 145,183 145,308 0,125 -53,228 -145,308 -89,78 -205,108 -320,113l0 2 -133 0 0 -846 133 0 0 2zm758 507l-335 -509 158 0 244 370 244 -370 158 0 -335 509 0 337 -134 0 0 -337zm-758 -375l0 579c82,-5 167,-24 230,-80 63,-55 100,-123 100,-210 0,-87 -37,-155 -100,-210 -63,-55 -149,-75 -230,-79z"/>
  <path class="fil0" d="M1949 4079c-54,-16 -109,-40 -153,-78 -39,-34 -61,-77 -61,-130 0,-52 23,-95 61,-129l0 0c41,-36 90,-53 144,-53 53,0 102,17 143,52 21,18 38,40 47,66l8 21 -83 29 -8 -18c-6,-14 -15,-25 -26,-35 -23,-20 -51,-29 -81,-29 -31,0 -58,9 -82,29 -20,18 -32,39 -32,67 0,28 12,49 32,67 27,23 62,40 95,54 66,19 129,49 181,95 53,46 83,104 83,175 0,72 -30,130 -82,176 -56,49 -122,71 -195,71 -73,0 -139,-23 -195,-72 -41,-35 -70,-80 -79,-135l-4 -19 89 -28 3 26c5,38 24,69 53,93 38,34 83,49 133,49 50,0 95,-15 133,-49 34,-29 54,-66 54,-112 0,-46 -20,-82 -54,-112 -36,-32 -79,-54 -124,-71zm590 -294l0 715 -91 0 0 -715 -219 0 0 -87 529 0 0 87 -219 0zm800 -87l91 0 0 569 0 1c-10,65 -41,118 -90,161 -61,53 -133,77 -213,77 -80,0 -152,-24 -214,-77 -57,-50 -90,-114 -90,-192l0 -539 92 0 0 539c0,53 22,94 61,128 43,38 94,54 151,54 57,0 108,-16 151,-54 38,-34 61,-75 61,-128l0 -539zm302 2c117,2 237,28 327,108 87,76 137,172 137,291 0,119 -50,215 -137,291 -90,80 -210,106 -327,109l0 1 -91 0 0 -802 91 0 0 2zm0 87l0 625c93,-2 192,-22 264,-86 69,-60 108,-134 108,-227 0,-93 -40,-167 -108,-227 -72,-63 -171,-83 -264,-85zm800 391l-316 -480 107 0 255 387 255 -387 107 0 -317 480 0 322 -91 0 0 -322z"/>
  <path class="fil0" d="M2832 4992c17,-78 55,-148 113,-208 82,-84 182,-127 297,-127 116,0 215,43 297,127 82,84 123,187 123,306 0,119 -41,222 -123,306 -81,84 -181,127 -297,127 -115,0 -215,-43 -297,-127 -81,-84 -123,-187 -123,-306 0,-20 1,-39 4,-58 -12,50 -37,95 -75,134 -23,23 -48,42 -77,57l183 291 -152 0 -164 -263 -72 0 0 263 -127 0 0 -846 239 0 3 1c64,9 121,37 167,85 55,56 83,125 83,205 0,11 -1,22 -2,33zm-660 346l0 -253 126 0 0 309 -13 13c-78,77 -172,116 -280,116 -115,0 -215,-43 -296,-127 -82,-84 -123,-186 -123,-305 0,-119 41,-221 123,-305 81,-84 181,-127 296,-127 108,0 203,38 282,113l35 32 -94 88 -29 -26c-56,-50 -120,-75 -194,-75 -81,0 -149,29 -206,88 -57,59 -85,129 -85,212 0,83 28,154 85,213 57,59 125,88 206,88 62,0 117,-17 167,-54zm1970 -670l127 0 0 592 0 3c-9,66 -36,124 -82,172 -55,57 -123,85 -200,85 -78,0 -145,-28 -200,-85 -55,-56 -83,-126 -83,-206l0 -561 127 0 0 561c0,45 15,82 45,113 31,32 67,47 111,47 43,0 79,-15 110,-47 30,-31 45,-68 45,-113l0 -561zm307 583l0 263 -127 0 0 -846 239 0 3 1c64,9 121,37 167,85 55,56 83,125 83,205 0,81 -28,150 -83,207 -55,56 -122,85 -200,85l-82 0zm-1980 -452l0 321 82 0c44,0 80,-15 110,-47 31,-32 46,-69 46,-114 0,-44 -15,-81 -46,-113 -30,-31 -66,-47 -110,-47l-82 0zm773 -10c-81,0 -149,29 -207,88 -57,59 -85,129 -85,213 0,84 28,154 85,213 58,59 126,89 207,89 81,0 150,-30 207,-89 58,-59 86,-129 86,-213 0,-84 -28,-154 -86,-213 -57,-59 -126,-88 -207,-88zm1207 10l0 321 82 0c43,0 79,-15 110,-47 31,-32 46,-69 46,-114 0,-44 -15,-81 -46,-113 -31,-31 -67,-47 -110,-47l-82 0z"/>
  <path class="fil0" d="M2193 5350l0 -243 84 0 0 278 -7 6c-74,73 -162,110 -265,110 -109,0 -204,-40 -281,-120 -78,-80 -117,-177 -117,-290 0,-113 39,-210 117,-290 77,-80 172,-120 281,-120 103,0 192,36 268,107l17 16 -63 59 -14 -13c-59,-54 -128,-81 -208,-81 -86,0 -160,31 -221,94 -61,63 -92,139 -92,228 0,89 31,165 92,228 61,63 135,95 221,95 70,0 133,-21 188,-64zm359 -121c0,0 0,0 -1,0l-103 0 0 263 -84 0 0 -802 216 0 1 0c60,9 112,35 155,79 51,53 77,116 77,190 0,75 -26,139 -77,191 -27,28 -58,49 -93,63l175 279 -102 0 -164 -263zm-104 -452l0 365 103 0c49,0 91,-18 125,-54 35,-35 52,-78 52,-129 0,-50 -17,-93 -52,-128 -34,-36 -76,-54 -125,-54l-103 0zm794 -98c110,0 204,41 282,121 78,80 117,177 117,290 0,113 -39,210 -117,290 -78,80 -172,121 -282,121 -110,0 -204,-41 -282,-121 -77,-80 -116,-177 -116,-290 0,-113 39,-210 116,-290 78,-80 172,-121 282,-121zm0 88c-86,0 -160,31 -222,95 -61,63 -92,139 -92,228 0,90 31,165 92,229 62,63 135,95 222,95 87,0 161,-32 222,-95 62,-64 92,-139 92,-229 0,-89 -30,-165 -92,-228 -61,-64 -135,-95 -222,-95zm922 -77l84 0 0 568 0 2c-8,62 -34,115 -76,159 -51,53 -113,79 -185,79 -72,0 -134,-26 -185,-79 -51,-52 -77,-116 -77,-190l0 -539 84 0 0 539c0,51 18,93 52,129 35,36 77,53 126,53 49,0 90,-17 125,-53 34,-36 52,-78 52,-129l0 -539zm263 539l0 263 -84 0 0 -802 216 0 2 0c60,9 112,35 155,79 51,53 76,116 76,190 0,75 -25,139 -76,191 -51,53 -113,79 -185,79l-104 0zm0 -452l0 365 104 0c49,0 90,-18 125,-54 35,-35 52,-78 52,-129 0,-50 -17,-93 -52,-128 -35,-36 -76,-54 -125,-54l-104 0z"/>
  <path class="fil0" d="M2846 2716c134,-111 261,-230 388,-348 24,-22 48,-44 95,-87l16 -15 17 14c74,61 145,126 216,192 55,51 111,102 170,153l1 0c57,51 140,69 219,86l3 1 6 1 6 5c43,40 88,81 134,123 41,37 82,74 124,111l77 68 -99 -23c-41,-9 -128,-37 -178,-53 -6,-3 -12,-4 -17,-6l-1 0c-53,-18 -92,-33 -130,-49 -35,-15 -68,-31 -109,-53 -10,8 -16,14 -22,20 -7,9 -12,19 -20,36l-15 32 -25 -25c-42,-40 -84,-81 -125,-118 -36,-34 -72,-66 -110,-97 -39,52 -75,104 -110,156 -23,34 -46,68 -69,100l-16 23 -21 -19c-17,-16 -34,-33 -51,-50 -29,-29 -58,-57 -91,-84 -29,26 -55,49 -77,68 -33,27 -59,47 -80,61l-11 8 -13 -6c-50,-23 -99,-48 -145,-75 -40,-25 -78,-51 -112,-81 -32,26 -64,53 -96,80l0 0 -4 4 -6 2c-48,13 -91,25 -134,37 -47,13 -94,26 -116,33l-109 30 85 -75c106,-94 225,-190 338,-280 11,-9 21,-17 32,-26l15 -12 16 11c22,17 42,36 61,55 30,28 59,56 93,72zm263 122c-21,19 -43,38 -65,56 -26,22 -52,43 -80,62l-21 15 -24 -11c-50,-23 -99,-48 -146,-76 -36,-22 -70,-45 -103,-72 -27,23 -55,46 -82,70l-8 6 -9 3c-45,13 -90,25 -135,38 -39,10 -77,21 -116,32l-195 55 153 -136c109,-98 224,-189 338,-280 11,-9 22,-18 33,-27l27 -21 27 20c23,17 44,37 64,57 23,22 48,47 77,62 129,-108 253,-224 377,-339 31,-29 63,-58 94,-87l29 -27 30 25c75,61 146,127 217,193 56,52 112,103 170,153l1 1 0 0c56,48 141,65 210,80l15 4 9 8c45,41 90,82 135,123 40,37 82,74 123,111l139 123 -179 -41c-32,-8 -66,-19 -98,-29 -27,-8 -54,-17 -81,-25 -6,-2 -11,-4 -17,-6l-2 -1 0 0c-44,-15 -88,-30 -131,-48 -34,-15 -66,-31 -98,-48 -4,3 -7,6 -9,9 -7,9 -13,21 -18,31l-27 58 -45 -44c-41,-40 -83,-80 -125,-119 -30,-28 -61,-56 -92,-82 -34,45 -66,91 -97,138 -23,33 -46,67 -69,100l-30 42 -38 -35c-17,-16 -35,-33 -52,-50 -24,-25 -49,-49 -76,-71zm-265 -290c58,-53 105,-95 152,-138 111,-99 221,-198 327,-298l19 -18 21 18c81,70 157,143 232,215 80,77 159,154 242,225l1 1c47,43 109,52 170,61 17,2 35,5 52,8l9 2 6 6c31,28 61,56 92,85 264,245 527,489 790,728l61 55 -81 0 -390 0c-995,0 -1990,0 -2985,0l-79 0 59 -55 83 -77c340,-315 681,-631 1031,-946l19 -17 20 16c34,29 67,58 101,87 14,13 29,26 48,42zm-1 -27c47,-43 93,-85 140,-126 110,-99 219,-197 326,-298l33 -31 34 29c80,70 156,143 233,217 79,76 158,152 241,223l1 1 1 1c42,40 104,48 159,56 18,3 35,5 53,9l14 2 11 10c30,28 61,57 91,85 263,244 526,487 791,728l101 92 -525 0c-995,0 -1990,0 -2985,0l-132 0 181 -168c342,-317 684,-634 1031,-947l32 -28 33 27c35,28 68,58 102,87 11,10 23,21 34,31z"/>
  <path class="fil0" d="M2242 1340c26,12 50,27 72,45 72,54 121,126 121,220 0,94 -49,167 -121,221 -63,48 -135,74 -213,81l0 3 -285 0 0 -846 226 0c58,0 113,15 161,49 44,33 74,78 74,136 0,35 -14,65 -35,91zm419 -276l0 846 -143 0 0 -846 143 0zm548 276c25,12 50,27 72,45 72,54 120,126 120,220 0,94 -49,167 -120,221 -63,48 -136,74 -213,81l0 3 -286 0 0 -846 227 0c58,0 113,15 160,49 45,33 75,78 75,136 0,35 -14,65 -35,91zm406 439l401 0 0 131 -545 0 0 -846 144 0 0 715zm614 -584l0 227 458 0 0 130 -458 0 0 227 458 0 0 131 -602 0 0 -846 602 0 0 131 -458 0zm-2270 239l0 345 107 0c56,-4 108,-21 153,-56l0 0c39,-29 69,-66 69,-118 0,-51 -29,-88 -68,-116 -54,-40 -117,-55 -183,-55l-78 0zm0 -239l0 105 96 0c22,-1 43,-7 61,-19 12,-8 20,-17 20,-32 0,-16 -8,-26 -20,-34 -22,-15 -48,-20 -74,-20l-83 0zm967 239l0 345 107 0c56,-4 108,-21 153,-56l0 0c39,-29 69,-66 69,-118 0,-51 -29,-88 -68,-116 -54,-40 -117,-55 -183,-55l-78 0zm0 -239l0 105 96 0c22,-1 43,-7 61,-19 12,-8 20,-17 20,-32 0,-16 -9,-26 -21,-34 -21,-15 -48,-20 -73,-20l-83 0z"/>
  <path class="fil0" d="M2203 1348c36,12 69,31 99,55 66,49 111,115 111,202 0,87 -45,153 -111,203 -66,50 -142,74 -222,78l0 2 -243 0 0 -802 205 0c53,0 104,13 148,45 39,29 66,67 66,118 0,41 -23,74 -53,99zm-265 64l0 389 129 0c60,-4 116,-23 165,-60l0 0c45,-34 77,-77 77,-136 0,-59 -32,-101 -77,-134 -57,-43 -124,-59 -195,-59l-99 0zm0 -239l0 149 118 0c26,-1 50,-8 72,-23 18,-12 30,-27 30,-50 0,-23 -12,-40 -30,-52 -26,-18 -56,-24 -86,-24l-104 0zm702 -87l0 802 -101 0 0 -802 101 0zm530 262c36,12 68,31 98,55 67,49 112,115 112,202 0,87 -46,153 -112,203 -65,50 -141,74 -221,78l0 2 -243 0 0 -802 205 0c53,0 104,13 148,45 39,29 66,67 66,118 0,41 -24,74 -53,99zm-265 64l0 389 128 0c61,-4 117,-23 166,-60l0 0c45,-34 77,-77 77,-136 0,-59 -32,-101 -77,-134 -57,-43 -125,-59 -195,-59l-99 0zm0 -239l0 149 118 0c25,-1 50,-8 72,-23 18,-12 30,-27 30,-50 0,-23 -13,-40 -31,-52 -25,-18 -55,-24 -85,-24l-104 0zm688 628l401 0 0 87 -501 0 0 -802 100 0 0 715zm614 -628l0 271 459 0 0 86 -459 0 0 271 459 0 0 87 -559 0 0 -802 559 0 0 87 -459 0z"/>
  <path class="fil0" d="M2242 1340c26,12 50,27 72,45 72,54 121,126 121,220 0,94 -49,167 -121,221 -63,48 -135,74 -213,81l0 3 -285 0 0 -846 226 0c58,0 113,15 161,49 44,33 74,78 74,136 0,35 -14,65 -35,91zm419 -276l0 846 -143 0 0 -846 143 0zm548 276c25,12 50,27 72,45 72,54 120,126 120,220 0,94 -49,167 -120,221 -63,48 -136,74 -213,81l0 3 -286 0 0 -846 227 0c58,0 113,15 160,49 45,33 75,78 75,136 0,35 -14,65 -35,91zm406 439l401 0 0 131 -545 0 0 -846 144 0 0 715zm614 -584l0 227 458 0 0 130 -458 0 0 227 458 0 0 131 -602 0 0 -846 602 0 0 131 -458 0zm-2270 239l0 345 107 0c56,-4 108,-21 153,-56l0 0c39,-29 69,-66 69,-118 0,-51 -29,-88 -68,-116 -54,-40 -117,-55 -183,-55l-78 0zm0 -239l0 105 96 0c22,-1 43,-7 61,-19 12,-8 20,-17 20,-32 0,-16 -8,-26 -20,-34 -22,-15 -48,-20 -74,-20l-83 0zm967 239l0 345 107 0c56,-4 108,-21 153,-56l0 0c39,-29 69,-66 69,-118 0,-51 -29,-88 -68,-116 -54,-40 -117,-55 -183,-55l-78 0zm0 -239l0 105 96 0c22,-1 43,-7 61,-19 12,-8 20,-17 20,-32 0,-16 -9,-26 -21,-34 -21,-15 -48,-20 -73,-20l-83 0z"/>
  <path class="fil0" d="M2203 1348c36,12 69,31 99,55 66,49 111,115 111,202 0,87 -45,153 -111,203 -66,50 -142,74 -222,78l0 2 -243 0 0 -802 205 0c53,0 104,13 148,45 39,29 66,67 66,118 0,41 -23,74 -53,99zm-265 64l0 389 129 0c60,-4 116,-23 165,-60l0 0c45,-34 77,-77 77,-136 0,-59 -32,-101 -77,-134 -57,-43 -124,-59 -195,-59l-99 0zm0 -239l0 149 118 0c26,-1 50,-8 72,-23 18,-12 30,-27 30,-50 0,-23 -12,-40 -30,-52 -26,-18 -56,-24 -86,-24l-104 0zm702 -87l0 802 -101 0 0 -802 101 0zm530 262c36,12 68,31 98,55 67,49 112,115 112,202 0,87 -46,153 -112,203 -65,50 -141,74 -221,78l0 2 -243 0 0 -802 205 0c53,0 104,13 148,45 39,29 66,67 66,118 0,41 -24,74 -53,99zm-265 64l0 389 128 0c61,-4 117,-23 166,-60l0 0c45,-34 77,-77 77,-136 0,-59 -32,-101 -77,-134 -57,-43 -125,-59 -195,-59l-99 0zm0 -239l0 149 118 0c25,-1 50,-8 72,-23 18,-12 30,-27 30,-50 0,-23 -13,-40 -31,-52 -25,-18 -55,-24 -85,-24l-104 0zm688 628l401 0 0 87 -501 0 0 -802 100 0 0 715zm614 -628l0 271 459 0 0 86 -459 0 0 271 459 0 0 87 -559 0 0 -802 559 0 0 87 -459 0z"/>
  <g>
   <path class="fil0" d="M3251 0c897,0 1709,364 2298,953 588,589 952,1402 952,2300 0,897 -364,1710 -952,2299 -589,589 -1401,953 -2298,953 -898,0 -1710,-364 -2299,-953 -588,-589 -952,-1402 -952,-2299 0,-898 364,-1711 952,-2300 589,-589 1401,-953 2299,-953zm0 186c1692,0 3065,1373 3065,3067 0,1694 -1373,3067 -3065,3067 -1693,0 -3065,-1373 -3065,-3067 0,-1694 1372,-3067 3065,-3067z"/>
  </g>
  <path class="fil0" d="M1943 4100c-57,-17 -115,-42 -161,-82 -43,-38 -68,-88 -68,-147 0,-59 25,-108 68,-146l0 0c45,-40 99,-57 158,-57 58,0 111,18 157,56 23,21 42,45 53,75l16 43 -123 42 -15 -37c-5,-10 -12,-19 -21,-26 -19,-17 -42,-24 -67,-24 -26,0 -48,7 -68,24 -15,13 -24,29 -24,50 0,21 9,36 24,50 25,21 58,37 88,50 69,20 133,52 188,99 57,50 90,114 90,192 0,78 -32,142 -90,192 -59,53 -130,77 -208,77 -78,0 -149,-25 -209,-77 -44,-39 -76,-88 -86,-148l-7 -38 131 -42 6 52c4,33 21,59 45,80 35,30 75,43 120,43 45,0 85,-13 120,-43 29,-26 46,-56 46,-96 0,-40 -18,-70 -46,-95 -35,-30 -75,-51 -117,-67zm617 -293l0 715 -134 0 0 -715 -219 0 0 -131 572 0 0 131 -219 0zm757 -131l135 0 0 592 -1 4c-11,70 -45,128 -97,174 -65,57 -142,82 -227,82 -85,0 -162,-25 -227,-82 -62,-55 -98,-124 -98,-209l0 -561 134 0 0 561c0,46 20,82 54,111 39,35 85,49 137,49 52,0 98,-14 137,-49 34,-29 53,-65 53,-111l0 -561zm345 2c115,5 231,35 320,113 91,81 145,183 145,308 0,125 -53,228 -145,308 -89,78 -205,108 -320,113l0 2 -133 0 0 -846 133 0 0 2zm758 507l-335 -509 158 0 244 370 244 -370 158 0 -335 509 0 337 -134 0 0 -337zm-758 -375l0 579c82,-5 167,-24 230,-80 63,-55 100,-123 100,-210 0,-87 -37,-155 -100,-210 -63,-55 -149,-75 -230,-79z"/>
  <path class="fil0" d="M1949 4079c-54,-16 -109,-40 -153,-78 -39,-34 -61,-77 -61,-130 0,-52 23,-95 61,-129l0 0c41,-36 90,-53 144,-53 53,0 102,17 143,52 21,18 38,40 47,66l8 21 -83 29 -8 -18c-6,-14 -15,-25 -26,-35 -23,-20 -51,-29 -81,-29 -31,0 -58,9 -82,29 -20,18 -32,39 -32,67 0,28 12,49 32,67 27,23 62,40 95,54 66,19 129,49 181,95 53,46 83,104 83,175 0,72 -30,130 -82,176 -56,49 -122,71 -195,71 -73,0 -139,-23 -195,-72 -41,-35 -70,-80 -79,-135l-4 -19 89 -28 3 26c5,38 24,69 53,93 38,34 83,49 133,49 50,0 95,-15 133,-49 34,-29 54,-66 54,-112 0,-46 -20,-82 -54,-112 -36,-32 -79,-54 -124,-71zm590 -294l0 715 -91 0 0 -715 -219 0 0 -87 529 0 0 87 -219 0zm800 -87l91 0 0 569 0 1c-10,65 -41,118 -90,161 -61,53 -133,77 -213,77 -80,0 -152,-24 -214,-77 -57,-50 -90,-114 -90,-192l0 -539 92 0 0 539c0,53 22,94 61,128 43,38 94,54 151,54 57,0 108,-16 151,-54 38,-34 61,-75 61,-128l0 -539zm302 2c117,2 237,28 327,108 87,76 137,172 137,291 0,119 -50,215 -137,291 -90,80 -210,106 -327,109l0 1 -91 0 0 -802 91 0 0 2zm0 87l0 625c93,-2 192,-22 264,-86 69,-60 108,-134 108,-227 0,-93 -40,-167 -108,-227 -72,-63 -171,-83 -264,-85zm800 391l-316 -480 107 0 255 387 255 -387 107 0 -317 480 0 322 -91 0 0 -322z"/>
  <path class="fil0" d="M2832 4992c17,-78 55,-148 113,-208 82,-84 182,-127 297,-127 116,0 215,43 297,127 82,84 123,187 123,306 0,119 -41,222 -123,306 -81,84 -181,127 -297,127 -115,0 -215,-43 -297,-127 -81,-84 -123,-187 -123,-306 0,-20 1,-39 4,-58 -12,50 -37,95 -75,134 -23,23 -48,42 -77,57l183 291 -152 0 -164 -263 -72 0 0 263 -127 0 0 -846 239 0 3 1c64,9 121,37 167,85 55,56 83,125 83,205 0,11 -1,22 -2,33zm-660 346l0 -253 126 0 0 309 -13 13c-78,77 -172,116 -280,116 -115,0 -215,-43 -296,-127 -82,-84 -123,-186 -123,-305 0,-119 41,-221 123,-305 81,-84 181,-127 296,-127 108,0 203,38 282,113l35 32 -94 88 -29 -26c-56,-50 -120,-75 -194,-75 -81,0 -149,29 -206,88 -57,59 -85,129 -85,212 0,83 28,154 85,213 57,59 125,88 206,88 62,0 117,-17 167,-54zm1970 -670l127 0 0 592 0 3c-9,66 -36,124 -82,172 -55,57 -123,85 -200,85 -78,0 -145,-28 -200,-85 -55,-56 -83,-126 -83,-206l0 -561 127 0 0 561c0,45 15,82 45,113 31,32 67,47 111,47 43,0 79,-15 110,-47 30,-31 45,-68 45,-113l0 -561zm307 583l0 263 -127 0 0 -846 239 0 3 1c64,9 121,37 167,85 55,56 83,125 83,205 0,81 -28,150 -83,207 -55,56 -122,85 -200,85l-82 0zm-1980 -452l0 321 82 0c44,0 80,-15 110,-47 31,-32 46,-69 46,-114 0,-44 -15,-81 -46,-113 -30,-31 -66,-47 -110,-47l-82 0zm773 -10c-81,0 -149,29 -207,88 -57,59 -85,129 -85,213 0,84 28,154 85,213 58,59 126,89 207,89 81,0 150,-30 207,-89 58,-59 86,-129 86,-213 0,-84 -28,-154 -86,-213 -57,-59 -126,-88 -207,-88zm1207 10l0 321 82 0c43,0 79,-15 110,-47 31,-32 46,-69 46,-114 0,-44 -15,-81 -46,-113 -31,-31 -67,-47 -110,-47l-82 0z"/>
  <path class="fil0" d="M2193 5350l0 -243 84 0 0 278 -7 6c-74,73 -162,110 -265,110 -109,0 -204,-40 -281,-120 -78,-80 -117,-177 -117,-290 0,-113 39,-210 117,-290 77,-80 172,-120 281,-120 103,0 192,36 268,107l17 16 -63 59 -14 -13c-59,-54 -128,-81 -208,-81 -86,0 -160,31 -221,94 -61,63 -92,139 -92,228 0,89 31,165 92,228 61,63 135,95 221,95 70,0 133,-21 188,-64zm359 -121c0,0 0,0 -1,0l-103 0 0 263 -84 0 0 -802 216 0 1 0c60,9 112,35 155,79 51,53 77,116 77,190 0,75 -26,139 -77,191 -27,28 -58,49 -93,63l175 279 -102 0 -164 -263zm-104 -452l0 365 103 0c49,0 91,-18 125,-54 35,-35 52,-78 52,-129 0,-50 -17,-93 -52,-128 -34,-36 -76,-54 -125,-54l-103 0zm794 -98c110,0 204,41 282,121 78,80 117,177 117,290 0,113 -39,210 -117,290 -78,80 -172,121 -282,121 -110,0 -204,-41 -282,-121 -77,-80 -116,-177 -116,-290 0,-113 39,-210 116,-290 78,-80 172,-121 282,-121zm0 88c-86,0 -160,31 -222,95 -61,63 -92,139 -92,228 0,90 31,165 92,229 62,63 135,95 222,95 87,0 161,-32 222,-95 62,-64 92,-139 92,-229 0,-89 -30,-165 -92,-228 -61,-64 -135,-95 -222,-95zm922 -77l84 0 0 568 0 2c-8,62 -34,115 -76,159 -51,53 -113,79 -185,79 -72,0 -134,-26 -185,-79 -51,-52 -77,-116 -77,-190l0 -539 84 0 0 539c0,51 18,93 52,129 35,36 77,53 126,53 49,0 90,-17 125,-53 34,-36 52,-78 52,-129l0 -539zm263 539l0 263 -84 0 0 -802 216 0 2 0c60,9 112,35 155,79 51,53 76,116 76,190 0,75 -25,139 -76,191 -51,53 -113,79 -185,79l-104 0zm0 -452l0 365 104 0c49,0 90,-18 125,-54 35,-35 52,-78 52,-129 0,-50 -17,-93 -52,-128 -35,-36 -76,-54 -125,-54l-104 0z"/>
  <path class="fil0" d="M3268 2407c-131,122 -262,244 -401,359l-11 9 -13 -4c-51,-18 -87,-53 -124,-89 -14,-13 -28,-26 -42,-38l-17 14c-82,65 -167,133 -248,201l6 -1c47,-13 94,-27 129,-36 35,-31 71,-61 110,-91l16 -13 16 14c34,33 75,62 119,88 41,24 84,47 128,67 17,-12 38,-29 64,-50 25,-21 56,-48 90,-80l15 -14 16 12c45,32 79,67 114,101 9,10 19,19 29,29 18,-26 35,-50 51,-75 41,-60 82,-120 128,-180l16 -20 20 16c46,37 89,76 132,116 35,32 69,64 101,96 4,-6 8,-11 12,-16 11,-12 23,-23 43,-38l13 -10 14 8c46,26 81,43 118,59 37,16 76,29 127,47l0 0c5,1 11,3 18,6 18,5 40,13 64,20 -12,-11 -25,-22 -37,-34 -43,-38 -87,-78 -130,-118 -84,-19 -171,-38 -238,-96l0 0c-58,-50 -115,-102 -172,-155 -64,-60 -129,-120 -197,-177 -20,19 -49,46 -79,73zm-159 431c-21,19 -43,38 -65,56 -26,22 -52,43 -80,62l-21 15 -24 -11c-50,-23 -99,-48 -146,-76 -36,-22 -70,-45 -103,-72 -27,23 -55,46 -82,70l-8 6 -9 3c-45,13 -90,25 -135,38 -39,10 -77,21 -116,32l-195 55 153 -136c109,-98 224,-189 338,-280 11,-9 22,-18 33,-27l27 -21 27 20c23,17 44,37 64,57 23,22 48,47 77,62 129,-108 253,-224 377,-339 31,-29 63,-58 94,-87l29 -27 30 25c75,61 146,127 217,193 56,52 112,103 170,153l1 1 0 0c56,48 141,65 210,80l15 4 9 8c45,41 90,82 135,123 40,37 82,74 123,111l139 123 -179 -41c-32,-8 -66,-19 -98,-29 -27,-8 -54,-17 -81,-25 -6,-2 -11,-4 -17,-6l-2 -1 0 0c-44,-15 -88,-30 -131,-48 -34,-15 -66,-31 -98,-48 -4,3 -7,6 -9,9 -7,9 -13,21 -18,31l-27 58 -45 -44c-41,-40 -83,-80 -125,-119 -30,-28 -61,-56 -92,-82 -34,45 -66,91 -97,138 -23,33 -46,67 -69,100l-30 42 -38 -35c-17,-16 -35,-33 -52,-50 -24,-25 -49,-49 -76,-71zm-72 -380c-63,56 -126,113 -173,155l-19 18 -20 -17c-17,-14 -43,-37 -69,-60 -26,-23 -53,-46 -80,-69 -336,303 -674,616 -1011,928l-23 22c968,1 1936,0 2905,0l310 0c-253,-230 -491,-451 -731,-674l-85 -78c-14,-3 -27,-5 -42,-7 -69,-10 -141,-21 -202,-77l0 0c-85,-73 -164,-149 -244,-226 -69,-66 -138,-133 -209,-196 -102,97 -205,189 -307,281zm-194 63c47,-43 93,-85 140,-126 110,-99 219,-197 326,-298l33 -31 34 29c80,70 156,143 233,217 79,76 158,152 241,223l1 1 1 1c42,40 104,48 159,56 18,3 35,5 53,9l14 2 11 10c30,28 61,57 91,85 263,244 526,487 791,728l101 92 -525 0c-995,0 -1990,0 -2985,0l-132 0 181 -168c342,-317 684,-634 1031,-947l32 -28 33 27c35,28 68,58 102,87 11,10 23,21 34,31z"/>
  <path class="fil0" d="M2846 2716c134,-111 261,-230 388,-348 24,-22 48,-44 95,-87l16 -15 17 14c74,61 145,126 216,192 55,51 111,102 170,153l1 0c57,51 140,69 219,86l3 1 6 1 6 5c43,40 88,81 134,123 41,37 82,74 124,111l77 68 -99 -23c-41,-9 -128,-37 -178,-53 -6,-3 -12,-4 -17,-6l-1 0c-53,-18 -92,-33 -130,-49 -35,-15 -68,-31 -109,-53 -10,8 -16,14 -22,20 -7,9 -12,19 -20,36l-15 32 -25 -25c-42,-40 -84,-81 -125,-118 -36,-34 -72,-66 -110,-97 -39,52 -75,104 -110,156 -23,34 -46,68 -69,100l-16 23 -21 -19c-17,-16 -34,-33 -51,-50 -29,-29 -58,-57 -91,-84 -29,26 -55,49 -77,68 -33,27 -59,47 -80,61l-11 8 -13 -6c-50,-23 -99,-48 -145,-75 -40,-25 -78,-51 -112,-81 -32,26 -64,53 -96,80l0 0 -4 4 -6 2c-48,13 -91,25 -134,37 -47,13 -94,26 -116,33l-109 30 85 -75c106,-94 225,-190 338,-280 11,-9 21,-17 32,-26l15 -12 16 11c22,17 42,36 61,55 30,28 59,56 93,72zm263 122c-21,19 -43,38 -65,56 -26,22 -52,43 -80,62l-21 15 -24 -11c-50,-23 -99,-48 -146,-76 -36,-22 -70,-45 -103,-72 -27,23 -55,46 -82,70l-8 6 -9 3c-45,13 -90,25 -135,38 -39,10 -77,21 -116,32l-195 55 153 -136c109,-98 224,-189 338,-280 11,-9 22,-18 33,-27l27 -21 27 20c23,17 44,37 64,57 23,22 48,47 77,62 129,-108 253,-224 377,-339 31,-29 63,-58 94,-87l29 -27 30 25c75,61 146,127 217,193 56,52 112,103 170,153l1 1 0 0c56,48 141,65 210,80l15 4 9 8c45,41 90,82 135,123 40,37 82,74 123,111l139 123 -179 -41c-32,-8 -66,-19 -98,-29 -27,-8 -54,-17 -81,-25 -6,-2 -11,-4 -17,-6l-2 -1 0 0c-44,-15 -88,-30 -131,-48 -34,-15 -66,-31 -98,-48 -4,3 -7,6 -9,9 -7,9 -13,21 -18,31l-27 58 -45 -44c-41,-40 -83,-80 -125,-119 -30,-28 -61,-56 -92,-82 -34,45 -66,91 -97,138 -23,33 -46,67 -69,100l-30 42 -38 -35c-17,-16 -35,-33 -52,-50 -24,-25 -49,-49 -76,-71zm-265 -290c58,-53 105,-95 152,-138 111,-99 221,-198 327,-298l19 -18 21 18c81,70 157,143 232,215 80,77 159,154 242,225l1 1c47,43 109,52 170,61 17,2 35,5 52,8l9 2 6 6c31,28 61,56 92,85 264,245 527,489 790,728l61 55 -81 0 -390 0c-995,0 -1990,0 -2985,0l-79 0 59 -55 83 -77c340,-315 681,-631 1031,-946l19 -17 20 16c34,29 67,58 101,87 14,13 29,26 48,42zm-1 -27c47,-43 93,-85 140,-126 110,-99 219,-197 326,-298l33 -31 34 29c80,70 156,143 233,217 79,76 158,152 241,223l1 1 1 1c42,40 104,48 159,56 18,3 35,5 53,9l14 2 11 10c30,28 61,57 91,85 263,244 526,487 791,728l101 92 -525 0c-995,0 -1990,0 -2985,0l-132 0 181 -168c342,-317 684,-634 1031,-947l32 -28 33 27c35,28 68,58 102,87 11,10 23,21 34,31z"/>
  <path class="fil0" d="M1943 4100c-57,-17 -115,-42 -161,-82 -43,-38 -68,-88 -68,-147 0,-59 25,-108 68,-146l0 0c45,-40 99,-57 158,-57 58,0 111,18 157,56 23,21 42,45 53,75l16 43 -123 42 -15 -37c-5,-10 -12,-19 -21,-26 -19,-17 -42,-24 -67,-24 -26,0 -48,7 -68,24 -15,13 -24,29 -24,50 0,21 9,36 24,50 25,21 58,37 88,50 69,20 133,52 188,99 57,50 90,114 90,192 0,78 -32,142 -90,192 -59,53 -130,77 -208,77 -78,0 -149,-25 -209,-77 -44,-39 -76,-88 -86,-148l-7 -38 131 -42 6 52c4,33 21,59 45,80 35,30 75,43 120,43 45,0 85,-13 120,-43 29,-26 46,-56 46,-96 0,-40 -18,-70 -46,-95 -35,-30 -75,-51 -117,-67zm617 -293l0 715 -134 0 0 -715 -219 0 0 -131 572 0 0 131 -219 0zm757 -131l135 0 0 592 -1 4c-11,70 -45,128 -97,174 -65,57 -142,82 -227,82 -85,0 -162,-25 -227,-82 -62,-55 -98,-124 -98,-209l0 -561 134 0 0 561c0,46 20,82 54,111 39,35 85,49 137,49 52,0 98,-14 137,-49 34,-29 53,-65 53,-111l0 -561zm345 2c115,5 231,35 320,113 91,81 145,183 145,308 0,125 -53,228 -145,308 -89,78 -205,108 -320,113l0 2 -133 0 0 -846 133 0 0 2zm758 507l-335 -509 158 0 244 370 244 -370 158 0 -335 509 0 337 -134 0 0 -337zm-758 -375l0 579c82,-5 167,-24 230,-80 63,-55 100,-123 100,-210 0,-87 -37,-155 -100,-210 -63,-55 -149,-75 -230,-79z"/>
  <path class="fil0" d="M1949 4079c-54,-16 -109,-40 -153,-78 -39,-34 -61,-77 -61,-130 0,-52 23,-95 61,-129l0 0c41,-36 90,-53 144,-53 53,0 102,17 143,52 21,18 38,40 47,66l8 21 -83 29 -8 -18c-6,-14 -15,-25 -26,-35 -23,-20 -51,-29 -81,-29 -31,0 -58,9 -82,29 -20,18 -32,39 -32,67 0,28 12,49 32,67 27,23 62,40 95,54 66,19 129,49 181,95 53,46 83,104 83,175 0,72 -30,130 -82,176 -56,49 -122,71 -195,71 -73,0 -139,-23 -195,-72 -41,-35 -70,-80 -79,-135l-4 -19 89 -28 3 26c5,38 24,69 53,93 38,34 83,49 133,49 50,0 95,-15 133,-49 34,-29 54,-66 54,-112 0,-46 -20,-82 -54,-112 -36,-32 -79,-54 -124,-71zm590 -294l0 715 -91 0 0 -715 -219 0 0 -87 529 0 0 87 -219 0zm800 -87l91 0 0 569 0 1c-10,65 -41,118 -90,161 -61,53 -133,77 -213,77 -80,0 -152,-24 -214,-77 -57,-50 -90,-114 -90,-192l0 -539 92 0 0 539c0,53 22,94 61,128 43,38 94,54 151,54 57,0 108,-16 151,-54 38,-34 61,-75 61,-128l0 -539zm302 2c117,2 237,28 327,108 87,76 137,172 137,291 0,119 -50,215 -137,291 -90,80 -210,106 -327,109l0 1 -91 0 0 -802 91 0 0 2zm0 87l0 625c93,-2 192,-22 264,-86 69,-60 108,-134 108,-227 0,-93 -40,-167 -108,-227 -72,-63 -171,-83 -264,-85zm800 391l-316 -480 107 0 255 387 255 -387 107 0 -317 480 0 322 -91 0 0 -322z"/>
  <path class="fil0" d="M2832 4992c17,-78 55,-148 113,-208 82,-84 182,-127 297,-127 116,0 215,43 297,127 82,84 123,187 123,306 0,119 -41,222 -123,306 -81,84 -181,127 -297,127 -115,0 -215,-43 -297,-127 -81,-84 -123,-187 -123,-306 0,-20 1,-39 4,-58 -12,50 -37,95 -75,134 -23,23 -48,42 -77,57l183 291 -152 0 -164 -263 -72 0 0 263 -127 0 0 -846 239 0 3 1c64,9 121,37 167,85 55,56 83,125 83,205 0,11 -1,22 -2,33zm-660 346l0 -253 126 0 0 309 -13 13c-78,77 -172,116 -280,116 -115,0 -215,-43 -296,-127 -82,-84 -123,-186 -123,-305 0,-119 41,-221 123,-305 81,-84 181,-127 296,-127 108,0 203,38 282,113l35 32 -94 88 -29 -26c-56,-50 -120,-75 -194,-75 -81,0 -149,29 -206,88 -57,59 -85,129 -85,212 0,83 28,154 85,213 57,59 125,88 206,88 62,0 117,-17 167,-54zm1970 -670l127 0 0 592 0 3c-9,66 -36,124 -82,172 -55,57 -123,85 -200,85 -78,0 -145,-28 -200,-85 -55,-56 -83,-126 -83,-206l0 -561 127 0 0 561c0,45 15,82 45,113 31,32 67,47 111,47 43,0 79,-15 110,-47 30,-31 45,-68 45,-113l0 -561zm307 583l0 263 -127 0 0 -846 239 0 3 1c64,9 121,37 167,85 55,56 83,125 83,205 0,81 -28,150 -83,207 -55,56 -122,85 -200,85l-82 0zm-1980 -452l0 321 82 0c44,0 80,-15 110,-47 31,-32 46,-69 46,-114 0,-44 -15,-81 -46,-113 -30,-31 -66,-47 -110,-47l-82 0zm773 -10c-81,0 -149,29 -207,88 -57,59 -85,129 -85,213 0,84 28,154 85,213 58,59 126,89 207,89 81,0 150,-30 207,-89 58,-59 86,-129 86,-213 0,-84 -28,-154 -86,-213 -57,-59 -126,-88 -207,-88zm1207 10l0 321 82 0c43,0 79,-15 110,-47 31,-32 46,-69 46,-114 0,-44 -15,-81 -46,-113 -31,-31 -67,-47 -110,-47l-82 0z"/>
  <path class="fil0" d="M2193 5350l0 -243 84 0 0 278 -7 6c-74,73 -162,110 -265,110 -109,0 -204,-40 -281,-120 -78,-80 -117,-177 -117,-290 0,-113 39,-210 117,-290 77,-80 172,-120 281,-120 103,0 192,36 268,107l17 16 -63 59 -14 -13c-59,-54 -128,-81 -208,-81 -86,0 -160,31 -221,94 -61,63 -92,139 -92,228 0,89 31,165 92,228 61,63 135,95 221,95 70,0 133,-21 188,-64zm359 -121c0,0 0,0 -1,0l-103 0 0 263 -84 0 0 -802 216 0 1 0c60,9 112,35 155,79 51,53 77,116 77,190 0,75 -26,139 -77,191 -27,28 -58,49 -93,63l175 279 -102 0 -164 -263zm-104 -452l0 365 103 0c49,0 91,-18 125,-54 35,-35 52,-78 52,-129 0,-50 -17,-93 -52,-128 -34,-36 -76,-54 -125,-54l-103 0zm794 -98c110,0 204,41 282,121 78,80 117,177 117,290 0,113 -39,210 -117,290 -78,80 -172,121 -282,121 -110,0 -204,-41 -282,-121 -77,-80 -116,-177 -116,-290 0,-113 39,-210 116,-290 78,-80 172,-121 282,-121zm0 88c-86,0 -160,31 -222,95 -61,63 -92,139 -92,228 0,90 31,165 92,229 62,63 135,95 222,95 87,0 161,-32 222,-95 62,-64 92,-139 92,-229 0,-89 -30,-165 -92,-228 -61,-64 -135,-95 -222,-95zm922 -77l84 0 0 568 0 2c-8,62 -34,115 -76,159 -51,53 -113,79 -185,79 -72,0 -134,-26 -185,-79 -51,-52 -77,-116 -77,-190l0 -539 84 0 0 539c0,51 18,93 52,129 35,36 77,53 126,53 49,0 90,-17 125,-53 34,-36 52,-78 52,-129l0 -539zm263 539l0 263 -84 0 0 -802 216 0 2 0c60,9 112,35 155,79 51,53 76,116 76,190 0,75 -25,139 -76,191 -51,53 -113,79 -185,79l-104 0zm0 -452l0 365 104 0c49,0 90,-18 125,-54 35,-35 52,-78 52,-129 0,-50 -17,-93 -52,-128 -35,-36 -76,-54 -125,-54l-104 0z"/>
  <path class="fil0" d="M2846 2716c134,-111 261,-230 388,-348 24,-22 48,-44 95,-87l16 -15 17 14c74,61 145,126 216,192 55,51 111,102 170,153l1 0c57,51 140,69 219,86l3 1 6 1 6 5c43,40 88,81 134,123 41,37 82,74 124,111l77 68 -99 -23c-41,-9 -128,-37 -178,-53 -6,-3 -12,-4 -17,-6l-1 0c-53,-18 -92,-33 -130,-49 -35,-15 -68,-31 -109,-53 -10,8 -16,14 -22,20 -7,9 -12,19 -20,36l-15 32 -25 -25c-42,-40 -84,-81 -125,-118 -36,-34 -72,-66 -110,-97 -39,52 -75,104 -110,156 -23,34 -46,68 -69,100l-16 23 -21 -19c-17,-16 -34,-33 -51,-50 -29,-29 -58,-57 -91,-84 -29,26 -55,49 -77,68 -33,27 -59,47 -80,61l-11 8 -13 -6c-50,-23 -99,-48 -145,-75 -40,-25 -78,-51 -112,-81 -32,26 -64,53 -96,80l0 0 -4 4 -6 2c-48,13 -91,25 -134,37 -47,13 -94,26 -116,33l-109 30 85 -75c106,-94 225,-190 338,-280 11,-9 21,-17 32,-26l15 -12 16 11c22,17 42,36 61,55 30,28 59,56 93,72zm263 122c-21,19 -43,38 -65,56 -26,22 -52,43 -80,62l-21 15 -24 -11c-50,-23 -99,-48 -146,-76 -36,-22 -70,-45 -103,-72 -27,23 -55,46 -82,70l-8 6 -9 3c-45,13 -90,25 -135,38 -39,10 -77,21 -116,32l-195 55 153 -136c109,-98 224,-189 338,-280 11,-9 22,-18 33,-27l27 -21 27 20c23,17 44,37 64,57 23,22 48,47 77,62 129,-108 253,-224 377,-339 31,-29 63,-58 94,-87l29 -27 30 25c75,61 146,127 217,193 56,52 112,103 170,153l1 1 0 0c56,48 141,65 210,80l15 4 9 8c45,41 90,82 135,123 40,37 82,74 123,111l139 123 -179 -41c-32,-8 -66,-19 -98,-29 -27,-8 -54,-17 -81,-25 -6,-2 -11,-4 -17,-6l-2 -1 0 0c-44,-15 -88,-30 -131,-48 -34,-15 -66,-31 -98,-48 -4,3 -7,6 -9,9 -7,9 -13,21 -18,31l-27 58 -45 -44c-41,-40 -83,-80 -125,-119 -30,-28 -61,-56 -92,-82 -34,45 -66,91 -97,138 -23,33 -46,67 -69,100l-30 42 -38 -35c-17,-16 -35,-33 -52,-50 -24,-25 -49,-49 -76,-71zm-265 -290c58,-53 105,-95 152,-138 111,-99 221,-198 327,-298l19 -18 21 18c81,70 157,143 232,215 80,77 159,154 242,225l1 1c47,43 109,52 170,61 17,2 35,5 52,8l9 2 6 6c31,28 61,56 92,85 264,245 527,489 790,728l61 55 -81 0 -390 0c-995,0 -1990,0 -2985,0l-79 0 59 -55 83 -77c340,-315 681,-631 1031,-946l19 -17 20 16c34,29 67,58 101,87 14,13 29,26 48,42zm-1 -27c47,-43 93,-85 140,-126 110,-99 219,-197 326,-298l33 -31 34 29c80,70 156,143 233,217 79,76 158,152 241,223l1 1 1 1c42,40 104,48 159,56 18,3 35,5 53,9l14 2 11 10c30,28 61,57 91,85 263,244 526,487 791,728l101 92 -525 0c-995,0 -1990,0 -2985,0l-132 0 181 -168c342,-317 684,-634 1031,-947l32 -28 33 27c35,28 68,58 102,87 11,10 23,21 34,31z"/>
  <path class="fil0" d="M2242 1340c26,12 50,27 72,45 72,54 121,126 121,220 0,94 -49,167 -121,221 -63,48 -135,74 -213,81l0 3 -285 0 0 -846 226 0c58,0 113,15 161,49 44,33 74,78 74,136 0,35 -14,65 -35,91zm419 -276l0 846 -143 0 0 -846 143 0zm548 276c25,12 50,27 72,45 72,54 120,126 120,220 0,94 -49,167 -120,221 -63,48 -136,74 -213,81l0 3 -286 0 0 -846 227 0c58,0 113,15 160,49 45,33 75,78 75,136 0,35 -14,65 -35,91zm406 439l401 0 0 131 -545 0 0 -846 144 0 0 715zm614 -584l0 227 458 0 0 130 -458 0 0 227 458 0 0 131 -602 0 0 -846 602 0 0 131 -458 0zm-2270 239l0 345 107 0c56,-4 108,-21 153,-56l0 0c39,-29 69,-66 69,-118 0,-51 -29,-88 -68,-116 -54,-40 -117,-55 -183,-55l-78 0zm0 -239l0 105 96 0c22,-1 43,-7 61,-19 12,-8 20,-17 20,-32 0,-16 -8,-26 -20,-34 -22,-15 -48,-20 -74,-20l-83 0zm967 239l0 345 107 0c56,-4 108,-21 153,-56l0 0c39,-29 69,-66 69,-118 0,-51 -29,-88 -68,-116 -54,-40 -117,-55 -183,-55l-78 0zm0 -239l0 105 96 0c22,-1 43,-7 61,-19 12,-8 20,-17 20,-32 0,-16 -9,-26 -21,-34 -21,-15 -48,-20 -73,-20l-83 0z"/>
  <path class="fil0" d="M2203 1348c36,12 69,31 99,55 66,49 111,115 111,202 0,87 -45,153 -111,203 -66,50 -142,74 -222,78l0 2 -243 0 0 -802 205 0c53,0 104,13 148,45 39,29 66,67 66,118 0,41 -23,74 -53,99zm-265 64l0 389 129 0c60,-4 116,-23 165,-60l0 0c45,-34 77,-77 77,-136 0,-59 -32,-101 -77,-134 -57,-43 -124,-59 -195,-59l-99 0zm0 -239l0 149 118 0c26,-1 50,-8 72,-23 18,-12 30,-27 30,-50 0,-23 -12,-40 -30,-52 -26,-18 -56,-24 -86,-24l-104 0zm702 -87l0 802 -101 0 0 -802 101 0zm530 262c36,12 68,31 98,55 67,49 112,115 112,202 0,87 -46,153 -112,203 -65,50 -141,74 -221,78l0 2 -243 0 0 -802 205 0c53,0 104,13 148,45 39,29 66,67 66,118 0,41 -24,74 -53,99zm-265 64l0 389 128 0c61,-4 117,-23 166,-60l0 0c45,-34 77,-77 77,-136 0,-59 -32,-101 -77,-134 -57,-43 -125,-59 -195,-59l-99 0zm0 -239l0 149 118 0c25,-1 50,-8 72,-23 18,-12 30,-27 30,-50 0,-23 -13,-40 -31,-52 -25,-18 -55,-24 -85,-24l-104 0zm688 628l401 0 0 87 -501 0 0 -802 100 0 0 715zm614 -628l0 271 459 0 0 86 -459 0 0 271 459 0 0 87 -559 0 0 -802 559 0 0 87 -459 0z"/>
  <path class="fil0" d="M2242 1340c26,12 50,27 72,45 72,54 121,126 121,220 0,94 -49,167 -121,221 -63,48 -135,74 -213,81l0 3 -285 0 0 -846 226 0c58,0 113,15 161,49 44,33 74,78 74,136 0,35 -14,65 -35,91zm419 -276l0 846 -143 0 0 -846 143 0zm548 276c25,12 50,27 72,45 72,54 120,126 120,220 0,94 -49,167 -120,221 -63,48 -136,74 -213,81l0 3 -286 0 0 -846 227 0c58,0 113,15 160,49 45,33 75,78 75,136 0,35 -14,65 -35,91zm406 439l401 0 0 131 -545 0 0 -846 144 0 0 715zm614 -584l0 227 458 0 0 130 -458 0 0 227 458 0 0 131 -602 0 0 -846 602 0 0 131 -458 0zm-2270 239l0 345 107 0c56,-4 108,-21 153,-56l0 0c39,-29 69,-66 69,-118 0,-51 -29,-88 -68,-116 -54,-40 -117,-55 -183,-55l-78 0zm0 -239l0 105 96 0c22,-1 43,-7 61,-19 12,-8 20,-17 20,-32 0,-16 -8,-26 -20,-34 -22,-15 -48,-20 -74,-20l-83 0zm967 239l0 345 107 0c56,-4 108,-21 153,-56l0 0c39,-29 69,-66 69,-118 0,-51 -29,-88 -68,-116 -54,-40 -117,-55 -183,-55l-78 0zm0 -239l0 105 96 0c22,-1 43,-7 61,-19 12,-8 20,-17 20,-32 0,-16 -9,-26 -21,-34 -21,-15 -48,-20 -73,-20l-83 0z"/>
  <path class="fil0" d="M2203 1348c36,12 69,31 99,55 66,49 111,115 111,202 0,87 -45,153 -111,203 -66,50 -142,74 -222,78l0 2 -243 0 0 -802 205 0c53,0 104,13 148,45 39,29 66,67 66,118 0,41 -23,74 -53,99zm-265 64l0 389 129 0c60,-4 116,-23 165,-60l0 0c45,-34 77,-77 77,-136 0,-59 -32,-101 -77,-134 -57,-43 -124,-59 -195,-59l-99 0zm0 -239l0 149 118 0c26,-1 50,-8 72,-23 18,-12 30,-27 30,-50 0,-23 -12,-40 -30,-52 -26,-18 -56,-24 -86,-24l-104 0zm702 -87l0 802 -101 0 0 -802 101 0zm530 262c36,12 68,31 98,55 67,49 112,115 112,202 0,87 -46,153 -112,203 -65,50 -141,74 -221,78l0 2 -243 0 0 -802 205 0c53,0 104,13 148,45 39,29 66,67 66,118 0,41 -24,74 -53,99zm-265 64l0 389 128 0c61,-4 117,-23 166,-60l0 0c45,-34 77,-77 77,-136 0,-59 -32,-101 -77,-134 -57,-43 -125,-59 -195,-59l-99 0zm0 -239l0 149 118 0c25,-1 50,-8 72,-23 18,-12 30,-27 30,-50 0,-23 -13,-40 -31,-52 -25,-18 -55,-24 -85,-24l-104 0zm688 628l401 0 0 87 -501 0 0 -802 100 0 0 715zm614 -628l0 271 459 0 0 86 -459 0 0 271 459 0 0 87 -559 0 0 -802 559 0 0 87 -459 0z"/>
 </g>
</svg>
