<?xml version="1.0" encoding="UTF-8" standalone="no"?>
<svg
   xmlns:dc="http://purl.org/dc/elements/1.1/"
   xmlns:cc="http://creativecommons.org/ns#"
   xmlns:rdf="http://www.w3.org/1999/02/22-rdf-syntax-ns#"
   xmlns:svg="http://www.w3.org/2000/svg"
   xmlns="http://www.w3.org/2000/svg"
   xmlns:sodipodi="http://sodipodi.sourceforge.net/DTD/sodipodi-0.dtd"
   xmlns:inkscape="http://www.inkscape.org/namespaces/inkscape"
   version="1.1"
   viewBox="0 0 30 30"
   enable-background="new 0 0 30 30"
   id="svg8"
   sodipodi:docname="clock.svg"
   inkscape:version="0.92.1 r15371">
  <metadata
     id="metadata14">
    <rdf:RDF>
      <cc:Work
         rdf:about="">
        <dc:format>image/svg+xml</dc:format>
        <dc:type
           rdf:resource="http://purl.org/dc/dcmitype/StillImage" />
      </cc:Work>
    </rdf:RDF>
  </metadata>
  <defs
     id="defs12" />
  <sodipodi:namedview
     pagecolor="#ffffff"
     bordercolor="#666666"
     borderopacity="1"
     objecttolerance="10"
     gridtolerance="10"
     guidetolerance="10"
     inkscape:pageopacity="0"
     inkscape:pageshadow="2"
     inkscape:window-width="742"
     inkscape:window-height="480"
     id="namedview10"
     showgrid="false"
     inkscape:zoom="7.8666667"
     inkscape:cx="12.775424"
     inkscape:cy="15"
     inkscape:window-x="0"
     inkscape:window-y="0"
     inkscape:window-maximized="0"
     inkscape:current-layer="g4" />
  <g
     id="g6">
    <g
       id="g4">
      <path
         fill="#020400"
         d="m15,4c-0.553,0-1,0.447-1,1v9h-5c-0.553,0-1,0.447-1,1 0,0.553 0.447,1 1,1h6c0.553,0 1-0.447 1-1v-10c0-0.553-0.447-1-1-1zm0-4c-8.284,0-15,6.716-15,15s6.716,15 15,15 15-6.716 15-15-6.716-15-15-15zm0,28c-7.18,0-13-5.82-13-13s5.82-13 13-13 13,5.82 13,13-5.82,13-13,13z"
         id="path2"
         style="fill:#ffffff" />
    </g>
  </g>
</svg>
