<svg height="512.00003pt" viewBox="0 0 512.00003 512.00003" width="512.00003pt" xmlns="http://www.w3.org/2000/svg"><path d="m119.464844 102.398438c28.277344 0 51.203125-22.921876 51.203125-51.199219 0-28.277344-22.925781-51.199219-51.203125-51.199219-28.273438 0-51.199219 22.921875-51.199219 51.199219.027344 28.265625 22.9375 51.171875 51.199219 51.199219zm0-85.332032c18.851562 0 34.136718 15.28125 34.136718 34.132813 0 18.851562-15.285156 34.132812-34.136718 34.132812-18.847656 0-34.132813-15.28125-34.132813-34.132812 0-18.851563 15.285157-34.132813 34.132813-34.132813zm0 0"/><path d="m153.601562 512c14.136719 0 25.597657-11.460938 25.597657-25.601562v-192c0-7.066407-5.730469-12.796876-12.800781-12.796876h-93.863282c-7.070312 0-12.800781 5.730469-12.800781 12.796876v192c0 14.140624 11.460937 25.601562 25.597656 25.601562 14.140625 0 25.601563-11.460938 25.601563-25.601562v-144.109376c-.191406-4.664062 3.132812-8.738281 7.738281-9.488281 2.390625-.195312 4.753906.613281 6.523437 2.234375 1.769532 1.617188 2.785157 3.898438 2.804688 6.296875v145.066407c0 14.140624 11.460938 25.601562 25.601562 25.601562zm-34.136718-196.265625c-.730469 0-1.464844 0-2.207032.09375-13.449218 1.484375-23.570312 12.933594-23.390624 26.460937v144.109376c0 4.714843-3.820313 8.535156-8.535157 8.535156-4.710937 0-8.53125-3.820313-8.53125-8.535156v-187.730469h85.332031v187.730469c0 4.714843-3.820312 8.535156-8.53125 8.535156-4.714843 0-8.535156-3.820313-8.535156-8.535156v-145.066407c.054688-6.757812-2.632812-13.246093-7.449218-17.988281-4.773438-4.882812-11.320313-7.628906-18.152344-7.609375zm0 0"/><path d="m392.535156 102.398438c28.273438 0 51.199219-22.921876 51.199219-51.199219 0-28.277344-22.925781-51.199219-51.199219-51.199219-28.277344 0-51.203125 22.921875-51.203125 51.199219.03125 28.265625 22.9375 51.171875 51.203125 51.199219zm0-85.332032c18.847656 0 34.132813 15.28125 34.132813 34.132813 0 18.851562-15.285157 34.132812-34.132813 34.132812-18.851562 0-34.136718-15.28125-34.136718-34.132812 0-18.851563 15.285156-34.132813 34.136718-34.132813zm0 0"/><path d="m452.265625 110.933594h-23.378906c-8.960938.023437-17.261719 4.722656-21.898438 12.390625l-13.34375 22.238281-13.253906-22.066406c-.582031-1.011719-1.25-1.96875-1.988281-2.867188-.1875-.230468-.382813-.472656-.605469-.703125-.421875-.519531-.871094-1.015625-1.347656-1.484375-.863281-.847656-1.777344-1.644531-2.742188-2.378906-.175781-.144531-.355469-.289062-.554687-.425781-1.097656-.851563-2.308594-1.550781-3.589844-2.082031-1.304688-.664063-2.671875-1.1875-4.078125-1.570313-1.300781-.449219-2.652344-.738281-4.019531-.855469-1.015625-.140625-2.039063-.207031-3.066406-.195312h-42.171876l-36.332031-94.574219c-.09375-.222656-.238281-.417969-.335937-.640625 0-.085938 0-.171875-.050782-.257812-.238281-.5625-.527343-1.132813-1.003906-2.054688-.199218-.398438-.429687-.777344-.691406-1.136719-.207031-.339843-.410156-.664062-.632812-.988281-.222657-.324219-.445313-.683594-.769532-1.160156l-.722656-.9375c-.238281-.300782-.488281-.589844-.753906-.855469l-1.621094-1.621094c-.175781-.1875-.730469-.648437-.921875-.851562-.515625-.4375-1.058594-.839844-1.628906-1.203125-.585938-.386719-1.195313-.753906-1.800781-1.085938-.847657-.570312-1.761719-1.039062-2.722657-1.398437l-.28125-.164063c-.832031-.410156-1.710937-.71875-2.617187-.910156-.976563-.351562-1.992188-.582031-3.023438-.691406-.828125-.125-1.660156-.203125-2.5-.238282-.410156 0-.851562-.1132808-1.226562-.1210932-1.378906-.0546876-2.761719.03125-4.121094.2539062-.640625.085937-1.265625.242187-1.90625.378906-.636719.136719-1.132812.203125-1.621094.339844-.210937.0625-.417968.136719-.621094.222656-.164062.042969-.257812.09375-.410156.144531-.375.117188-.769531.160157-1.144531.308594-.375.144532-.5625.304688-.851563.433594-.699218.261719-1.375.582031-2.023437.957031-.414063.191407-.808594.421875-1.1875.679688-.296875.179687-.59375.359375-.851563.554687-.253906.199219-.390624.242188-.582031.367188-.253906.164062-.496093.339844-.730469.53125l-.914062.691406c-.308594.238281-.980469.851562-1.253906 1.152344l-1.289063 1.285156c-.152343.15625-.597656.683594-.742187.855469-.414063.480469-.792969.988281-1.136719 1.519531-.410156.621094-.808594 1.246094-1.160156 1.867188-.515625.78125-.945313 1.613281-1.289063 2.484374l-.144531.289063c-.183594.335937-.351563.683594-.496094 1.042969l-36.339843 94.53125h-42.171876c-.8125-.019532-1.625.019531-2.433593.109375-1.582031.121093-3.144531.433593-4.652344.929687-1.175781.308594-2.320313.738282-3.410156 1.28125-1.523438.597656-2.957031 1.394532-4.269531 2.371094-.183594.132812-.363282.269531-.535157.417969-.976562.746093-1.90625 1.550781-2.773437 2.417969-.488282.46875-.941406.964843-1.367188 1.492187-.1875.203125-.359375.402344-.519531.605469-.621094.71875-1.171875 1.492187-1.648437 2.3125-.289063.417968-.554688.851562-.800782 1.296875l-12.800781 21.332031-13.328125-22.183594c-4.664062-7.683594-12.996094-12.375-21.980469-12.382812h-23.347656c-32.976563.039062-59.6953125 26.757812-59.734375 59.734375v111.957031c0 14.136719 11.460938 25.597656 25.601562 25.597656 1.425782 0 2.855469-.117187 4.265626-.347656 12.515624-2.46875 21.488281-13.519531 21.332031-26.273438v-98.136718c0-2.355469 1.910156-4.265625 4.265625-4.265625 2.359375 0 4.269531 1.910156 4.269531 4.265625v68.269531c0 7.066406 5.730469 12.800781 12.800781 12.800781h89.597656c9.425782 0 17.066407-7.644531 17.066407-17.070312v-68.265625c0-9.425781 7.640625-17.066407 17.066406-17.066407h17.066406c10.597657.027344 20.105469-6.496093 23.894531-16.390624l18.773438-48.742188 18.773438 48.773438c3.796874 9.886718 13.304687 16.398437 23.894531 16.359374h17.066406c9.425781 0 17.066406 7.640626 17.066406 17.066407v68.265625c0 9.425781 7.640625 17.070312 17.066407 17.070312h89.597656c7.070312 0 12.800781-5.734375 12.800781-12.800781v-68.269531c0-2.355469 1.910156-4.265625 4.269531-4.265625 2.355469 0 4.265625 1.910156 4.265625 4.265625v98.136718c-.164062 12.761719 8.808594 23.820313 21.332031 26.289063 1.410157.230469 2.839844.347656 4.265626.351563 14.140624 0 25.601562-11.460938 25.601562-25.601563v-111.972656c-.039062-32.976563-26.757812-59.695313-59.734375-59.734375zm-230.929687 28.644531c-1.265626 3.316406-4.453126 5.503906-8.003907 5.488281h-17.066406c-18.851563 0-34.132813 15.28125-34.132813 34.132813v68.265625h-85.332031v-64c0-11.78125-9.550781-21.332032-21.335937-21.332032-11.78125 0-21.332032 9.550782-21.332032 21.332032v98.136718c.136719 4.390626-2.789062 8.292969-7.046874 9.386719-2.480469.4375-5.023438-.242187-6.953126-1.855469-1.933593-1.609374-3.054687-3.992187-3.066406-6.507812v-111.957031c.027344-23.554688 19.113282-42.640625 42.667969-42.667969h23.347656c2.992188 0 5.769531 1.570312 7.3125 4.136719l20.648438 34.390625c1.542969 2.570312 4.320312 4.144531 7.320312 4.144531 2.996094 0 5.773438-1.574219 7.316407-4.144531l19.949218-33.28125.402344-.6875c.144531-.199219.605469-.855469.734375-1.085938.308594-.292968.59375-.609375.851563-.945312.320312-.304688.65625-.589844 1.007812-.855469.511719-.253906 1.007812-.539063 1.484375-.851563.304687-.164062.628906-.289062.964844-.375.289062-.078124 1.296875-.28125 1.578125-.386718.28125-.101563.742187-.058594.949218-.058594h48.042969c3.53125-.003906 6.695313-2.179688 7.960938-5.476562l28.082031-73.132813 9.164062 23.832031zm273.597656 143.046875c-.003906 2.519531-1.121094 4.914062-3.050782 6.53125-1.933593 1.621094-4.484374 2.304688-6.96875 1.863281-4.269531-1.09375-7.203124-5.015625-7.046874-9.417969v-98.136718c0-11.78125-9.550782-21.332032-21.332032-21.332032-11.785156 0-21.335937 9.550782-21.335937 21.332032v64h-85.332031v-68.265625c0-18.851563-15.28125-34.132813-34.132813-34.132813h-17.066406c-3.539063.015625-6.71875-2.152344-7.996094-5.453125l-42.667969-110.933593c-.773437-2.085938-.714844-4.390626.164063-6.433594.046875-.09375.089843-.191406.125-.289063.40625-.84375.941406-1.621093 1.589843-2.296875l.621094-.535156c.613282-.542969 1.304688-.988281 2.046875-1.324219l.300781-.121093c.210938-.046876.417969-.109376.621094-.1875.695313-.199219 1.414063-.3125 2.136719-.339844.363281-.035156.734375-.035156 1.097656 0 .859375.0625 1.707031.257812 2.511719.570312.136719.070313.277344.128906.425781.179688.847657.40625 1.625.949218 2.304688 1.605468l.433593.484376c.675782.730468 1.222657 1.574218 1.605469 2.492187l38.398438 100.011719c1.257812 3.3125 4.429687 5.5 7.96875 5.503906h48.394531c.203125 0 1.136719.179688 1.347656.195312.214844.019532.570313.1875.855469.265626.332031.085937.65625.210937.960937.375.214844.101562.761719.375.984376.46875.21875.09375.289062.230468.441406.332031.367187.285156.742187.609375 1.050781.855469.191406.265624.402344.515624.621094.757812.230469.316406.480469.632812.574219.742188l.597656 1 20.128906 33.542968c1.542969 2.570313 4.320312 4.144532 7.316406 4.144532 3 0 5.777344-1.574219 7.316406-4.144532l20.667969-34.421875c1.542969-2.542969 4.296875-4.101562 7.273438-4.113281h23.378906c23.554687.027344 42.640625 19.113281 42.667969 42.667969zm0 0"/><path d="m426.667969 512c14.136719 0 25.597656-11.460938 25.597656-25.601562v-192c0-7.066407-5.730469-12.796876-12.800781-12.796876h-93.863282c-7.070312 0-12.800781 5.730469-12.800781 12.796876v192c0 14.140624 11.460938 25.601562 25.597657 25.601562 14.140624 0 25.601562-11.460938 25.601562-25.601562v-145.066407c-.003906-2.300781.945312-4.5 2.621094-6.074219 1.726562-1.820312 4.203125-2.730468 6.699218-2.457031 4.609376.746094 7.9375 4.820313 7.746094 9.488281v144.109376c0 14.140624 11.460938 25.601562 25.601563 25.601562zm-31.90625-196.171875c-.742188-.09375-1.476563-.09375-2.226563-.09375-14.105468.078125-25.523437 11.492187-25.601562 25.597656v145.066407c0 4.714843-3.820313 8.535156-8.535156 8.535156-4.710938 0-8.53125-3.820313-8.53125-8.535156v-187.730469h85.332031v187.730469c0 4.714843-3.820313 8.535156-8.53125 8.535156-4.714844 0-8.535157-3.820313-8.535157-8.535156v-144.109376c.179688-13.519531-9.933593-24.96875-23.371093-26.460937zm0 0"/></svg>