<?xml version="1.0" encoding="UTF-8" standalone="no"?>
<svg
   xmlns:dc="http://purl.org/dc/elements/1.1/"
   xmlns:cc="http://creativecommons.org/ns#"
   xmlns:rdf="http://www.w3.org/1999/02/22-rdf-syntax-ns#"
   xmlns:svg="http://www.w3.org/2000/svg"
   xmlns="http://www.w3.org/2000/svg"
   height="9.7686472"
   width="17.741936"
   xml:space="preserve"
   viewBox="0 0 8.3450509 4.5947558"
   y="0px"
   x="0px"
   id="Capa_1"
   version="1.1"><metadata
     id="metadata52"><rdf:RDF><cc:Work
         rdf:about=""><dc:format>image/svg+xml</dc:format><dc:type
           rdf:resource="http://purl.org/dc/dcmitype/StillImage" /><dc:title></dc:title></cc:Work></rdf:RDF></metadata><defs
     id="defs50" /><g
     transform="matrix(0,-0.03465236,0.03465236,0,-3.465236e-5,6.4699075)"
     style="fill:#cdcdcd;fill-opacity:1"
     id="g15"><path
       style="fill:#cdcdcd;fill-opacity:1"
       d="M 57.633,129.007 165.93,237.268 c 4.752,4.74 12.451,4.74 17.215,0 4.752,-4.74 4.752,-12.439 0,-17.179 L 83.438,120.418 183.133,20.747 c 4.752,-4.74 4.752,-12.439 0,-17.191 -4.752,-4.74 -12.463,-4.74 -17.215,0 L 57.621,111.816 c -4.679,4.691 -4.679,12.511 0.012,17.191 z"
       id="Chevron_Right" /><g
       style="fill:#cdcdcd;fill-opacity:1"
       id="g3" /><g
       style="fill:#cdcdcd;fill-opacity:1"
       id="g5" /><g
       style="fill:#cdcdcd;fill-opacity:1"
       id="g7" /><g
       style="fill:#cdcdcd;fill-opacity:1"
       id="g9" /><g
       style="fill:#cdcdcd;fill-opacity:1"
       id="g11" /><g
       style="fill:#cdcdcd;fill-opacity:1"
       id="g13" /></g><g
     transform="translate(-118.11375,-111.64473)"
     id="g17" /><g
     transform="translate(-118.11375,-111.64473)"
     id="g19" /><g
     transform="translate(-118.11375,-111.64473)"
     id="g21" /><g
     transform="translate(-118.11375,-111.64473)"
     id="g23" /><g
     transform="translate(-118.11375,-111.64473)"
     id="g25" /><g
     transform="translate(-118.11375,-111.64473)"
     id="g27" /><g
     transform="translate(-118.11375,-111.64473)"
     id="g29" /><g
     transform="translate(-118.11375,-111.64473)"
     id="g31" /><g
     transform="translate(-118.11375,-111.64473)"
     id="g33" /><g
     transform="translate(-118.11375,-111.64473)"
     id="g35" /><g
     transform="translate(-118.11375,-111.64473)"
     id="g37" /><g
     transform="translate(-118.11375,-111.64473)"
     id="g39" /><g
     transform="translate(-118.11375,-111.64473)"
     id="g41" /><g
     transform="translate(-118.11375,-111.64473)"
     id="g43" /><g
     transform="translate(-118.11375,-111.64473)"
     id="g45" /></svg>